<svg width="72" height="54" viewBox="0 0 72 54" fill="none" xmlns="http://www.w3.org/2000/svg">
<mask id="path-1-inside-1_1001_310" fill="white">
<path d="M24.5691 0C27.2711 0.000278791 28.2327 2.6365 27.4626 4.52246C32.3441 5.20524 36.1535 9.20502 36.612 14.0986H45.321V4.13672C45.321 3.59221 45.7633 3.15039 46.3073 3.15039H53.0329C53.5774 3.15039 54.0193 3.59221 54.0193 4.13672V14.0986H57.8708C56.5368 12.8155 55.7039 11.015 55.7038 9.02246C55.7038 7.92953 55.437 6.39071 56.6902 6.39062H68.8152C70.0676 6.39082 69.8015 7.92908 69.8015 9.02246C69.8019 11.0482 68.9411 12.8753 67.5681 14.1621C70.0572 14.5553 71.9665 16.7155 71.9665 19.3135V43.752C71.9665 44.296 71.5237 44.7383 70.9792 44.7383H66.6267C66.1301 49.7444 61.8944 53.668 56.7595 53.668C51.6255 53.6679 47.3899 49.7443 46.8933 44.7383H33.4929C32.9963 49.7443 28.7612 53.668 23.6267 53.668C18.4915 53.6679 14.2566 49.7438 13.7605 44.7373H9.41672C8.87221 44.7373 8.43039 44.295 8.43039 43.751V19.3135C8.43039 19.1598 8.43781 19.0077 8.4509 18.8574C7.93177 18.1544 7.35635 17.1319 5.72433 16.8086C2.60131 16.1906 1.24113 19.0794 0.196012 17.6377C0.0204416 17.3956 -0.028302 17.1565 0.0202308 16.9248C-0.323159 15.402 3.89738 14.0946 6.10812 14.5332C7.1754 14.7449 8.44583 15.5123 9.33664 16.3779C10.0755 15.2969 11.2102 14.5074 12.53 14.2188C12.9321 9.2343 16.7734 5.20952 21.6736 4.52344C20.9031 2.63734 21.8665 0 24.5691 0ZM23.6267 35.8096C19.2471 35.8097 15.6844 39.3723 15.6843 43.752C15.6843 48.1316 19.2475 51.6942 23.6267 51.6943C28.0059 51.6943 31.5691 48.1317 31.5691 43.752C31.569 39.3723 28.0054 35.8096 23.6267 35.8096ZM56.7595 35.8096C52.3799 35.8097 48.8172 39.3723 48.8171 43.752C48.8171 48.1316 52.3798 51.6942 56.7595 51.6943C61.1392 51.6943 64.7019 48.1317 64.7019 43.752C64.7018 39.3723 61.1392 35.8096 56.7595 35.8096ZM23.6599 39.6152C26.0908 39.6153 28.0612 41.5857 28.0612 44.0166C28.0611 46.4474 26.0907 48.4179 23.6599 48.418C21.229 48.418 19.2586 46.4475 19.2585 44.0166C19.2585 41.5856 21.2289 39.6152 23.6599 39.6152ZM57.0349 39.6152C59.4658 39.6153 61.4362 41.5857 61.4362 44.0166C61.4361 46.4474 59.4657 48.4179 57.0349 48.418C54.604 48.418 52.6336 46.4475 52.6335 44.0166C52.6335 41.5856 54.6039 39.6152 57.0349 39.6152ZM14.323 17.3457C12.5895 17.3457 11.1786 18.6787 11.1784 20.3164V41.8057H13.904C14.811 37.2671 18.8251 33.836 23.6267 33.8359C28.4287 33.8359 32.4427 37.2673 33.3493 41.8066H47.0368C47.9436 37.2676 51.958 33.836 56.7595 33.8359C61.5611 33.8359 65.5764 37.2673 66.4831 41.8066H68.9568V20.3164C68.9566 18.6787 67.5452 17.3457 65.8122 17.3457H14.323ZM44.1374 19.3037C47.6058 19.3037 49.6314 22.268 49.9187 24.2754C53.4587 25.3088 53.4589 30.7837 49.9206 31.8184C49.6371 33.8257 47.6035 36.7928 44.1374 36.793H36.2575C32.7918 36.793 30.7569 33.8258 30.4734 31.8184C26.937 30.7831 26.9369 25.3115 30.4734 24.2764C30.7577 22.269 32.7926 19.3039 36.2575 19.3037H44.1374ZM32.5691 31.9893L32.6628 32.2891C33.192 33.7628 34.6039 34.8193 36.2575 34.8193H44.1374C45.901 34.8192 47.3884 33.6172 47.8239 31.9893H32.5691ZM31.7097 26.0791C29.1196 26.0793 29.1186 30.0154 31.7097 30.0156L48.6843 30.0166C51.2737 30.0166 51.2737 26.0791 48.6843 26.0791H31.7097ZM36.2585 21.2764C34.4948 21.2769 33.0061 22.4789 32.57 24.1064H47.8249C47.3894 22.4784 45.9006 21.2764 44.1374 21.2764H36.2585ZM23.2839 7.47852C19.4385 7.47852 16.248 10.3595 15.7146 14.0986H33.3337C32.8003 10.3603 29.6107 7.47854 25.7653 7.47852H23.2839ZM57.6775 9.02344C57.6777 11.8217 59.9539 14.0985 62.7527 14.0986C65.5515 14.0986 67.8286 11.8217 67.8288 9.02344V8.36426H57.6775V9.02344ZM47.2937 14.0977H52.0466V5.12305H47.2937V14.0977ZM24.5691 1.97266C22.9602 1.97266 22.9602 4.41797 24.5691 4.41797C26.1778 4.41753 26.1778 1.97309 24.5691 1.97266Z"/>
</mask>
<path d="M24.5691 0C27.2711 0.000278791 28.2327 2.6365 27.4626 4.52246C32.3441 5.20524 36.1535 9.20502 36.612 14.0986H45.321V4.13672C45.321 3.59221 45.7633 3.15039 46.3073 3.15039H53.0329C53.5774 3.15039 54.0193 3.59221 54.0193 4.13672V14.0986H57.8708C56.5368 12.8155 55.7039 11.015 55.7038 9.02246C55.7038 7.92953 55.437 6.39071 56.6902 6.39062H68.8152C70.0676 6.39082 69.8015 7.92908 69.8015 9.02246C69.8019 11.0482 68.9411 12.8753 67.5681 14.1621C70.0572 14.5553 71.9665 16.7155 71.9665 19.3135V43.752C71.9665 44.296 71.5237 44.7383 70.9792 44.7383H66.6267C66.1301 49.7444 61.8944 53.668 56.7595 53.668C51.6255 53.6679 47.3899 49.7443 46.8933 44.7383H33.4929C32.9963 49.7443 28.7612 53.668 23.6267 53.668C18.4915 53.6679 14.2566 49.7438 13.7605 44.7373H9.41672C8.87221 44.7373 8.43039 44.295 8.43039 43.751V19.3135C8.43039 19.1598 8.43781 19.0077 8.4509 18.8574C7.93177 18.1544 7.35635 17.1319 5.72433 16.8086C2.60131 16.1906 1.24113 19.0794 0.196012 17.6377C0.0204416 17.3956 -0.028302 17.1565 0.0202308 16.9248C-0.323159 15.402 3.89738 14.0946 6.10812 14.5332C7.1754 14.7449 8.44583 15.5123 9.33664 16.3779C10.0755 15.2969 11.2102 14.5074 12.53 14.2188C12.9321 9.2343 16.7734 5.20952 21.6736 4.52344C20.9031 2.63734 21.8665 0 24.5691 0ZM23.6267 35.8096C19.2471 35.8097 15.6844 39.3723 15.6843 43.752C15.6843 48.1316 19.2475 51.6942 23.6267 51.6943C28.0059 51.6943 31.5691 48.1317 31.5691 43.752C31.569 39.3723 28.0054 35.8096 23.6267 35.8096ZM56.7595 35.8096C52.3799 35.8097 48.8172 39.3723 48.8171 43.752C48.8171 48.1316 52.3798 51.6942 56.7595 51.6943C61.1392 51.6943 64.7019 48.1317 64.7019 43.752C64.7018 39.3723 61.1392 35.8096 56.7595 35.8096ZM23.6599 39.6152C26.0908 39.6153 28.0612 41.5857 28.0612 44.0166C28.0611 46.4474 26.0907 48.4179 23.6599 48.418C21.229 48.418 19.2586 46.4475 19.2585 44.0166C19.2585 41.5856 21.2289 39.6152 23.6599 39.6152ZM57.0349 39.6152C59.4658 39.6153 61.4362 41.5857 61.4362 44.0166C61.4361 46.4474 59.4657 48.4179 57.0349 48.418C54.604 48.418 52.6336 46.4475 52.6335 44.0166C52.6335 41.5856 54.6039 39.6152 57.0349 39.6152ZM14.323 17.3457C12.5895 17.3457 11.1786 18.6787 11.1784 20.3164V41.8057H13.904C14.811 37.2671 18.8251 33.836 23.6267 33.8359C28.4287 33.8359 32.4427 37.2673 33.3493 41.8066H47.0368C47.9436 37.2676 51.958 33.836 56.7595 33.8359C61.5611 33.8359 65.5764 37.2673 66.4831 41.8066H68.9568V20.3164C68.9566 18.6787 67.5452 17.3457 65.8122 17.3457H14.323ZM44.1374 19.3037C47.6058 19.3037 49.6314 22.268 49.9187 24.2754C53.4587 25.3088 53.4589 30.7837 49.9206 31.8184C49.6371 33.8257 47.6035 36.7928 44.1374 36.793H36.2575C32.7918 36.793 30.7569 33.8258 30.4734 31.8184C26.937 30.7831 26.9369 25.3115 30.4734 24.2764C30.7577 22.269 32.7926 19.3039 36.2575 19.3037H44.1374ZM32.5691 31.9893L32.6628 32.2891C33.192 33.7628 34.6039 34.8193 36.2575 34.8193H44.1374C45.901 34.8192 47.3884 33.6172 47.8239 31.9893H32.5691ZM31.7097 26.0791C29.1196 26.0793 29.1186 30.0154 31.7097 30.0156L48.6843 30.0166C51.2737 30.0166 51.2737 26.0791 48.6843 26.0791H31.7097ZM36.2585 21.2764C34.4948 21.2769 33.0061 22.4789 32.57 24.1064H47.8249C47.3894 22.4784 45.9006 21.2764 44.1374 21.2764H36.2585ZM23.2839 7.47852C19.4385 7.47852 16.248 10.3595 15.7146 14.0986H33.3337C32.8003 10.3603 29.6107 7.47854 25.7653 7.47852H23.2839ZM57.6775 9.02344C57.6777 11.8217 59.9539 14.0985 62.7527 14.0986C65.5515 14.0986 67.8286 11.8217 67.8288 9.02344V8.36426H57.6775V9.02344ZM47.2937 14.0977H52.0466V5.12305H47.2937V14.0977ZM24.5691 1.97266C22.9602 1.97266 22.9602 4.41797 24.5691 4.41797C26.1778 4.41753 26.1778 1.97309 24.5691 1.97266Z" fill="white"/>
<path d="M24.5691 0L24.5692 -1H24.5691V0ZM27.4626 4.52246L26.5368 4.14442L26.0508 5.33472L27.3241 5.51282L27.4626 4.52246ZM36.612 14.0986L35.6164 14.1919L35.7013 15.0986H36.612V14.0986ZM45.321 14.0986V15.0986H46.321V14.0986H45.321ZM54.0193 14.0986H53.0193V15.0986H54.0193V14.0986ZM57.8708 14.0986V15.0986H60.3529L58.5641 13.3779L57.8708 14.0986ZM55.7038 9.02246H54.7038V9.02252L55.7038 9.02246ZM56.6902 6.39062V5.39062H56.6901L56.6902 6.39062ZM68.8152 6.39062L68.8153 5.39062H68.8152V6.39062ZM69.8015 9.02246H68.8015V9.02266L69.8015 9.02246ZM67.5681 14.1621L66.8842 13.4325L65.3923 14.8308L67.412 15.1499L67.5681 14.1621ZM66.6267 44.7383V43.7383H65.721L65.6316 44.6396L66.6267 44.7383ZM56.7595 53.668L56.7595 54.668H56.7595V53.668ZM46.8933 44.7383L47.8884 44.6396L47.799 43.7383H46.8933V44.7383ZM33.4929 44.7383V43.7383H32.5872L32.4978 44.6396L33.4929 44.7383ZM23.6267 53.668L23.6267 54.668H23.6267V53.668ZM13.7605 44.7373L14.7556 44.6387L14.6663 43.7373H13.7605V44.7373ZM8.4509 18.8574L9.44713 18.9441L9.4799 18.5675L9.25536 18.2634L8.4509 18.8574ZM5.72433 16.8086L5.91864 15.8277L5.91845 15.8276L5.72433 16.8086ZM0.196012 17.6377L1.00565 17.0508L1.00551 17.0506L0.196012 17.6377ZM0.0202308 16.9248L0.998993 17.1298L1.04357 16.917L0.995738 16.7048L0.0202308 16.9248ZM6.10812 14.5332L6.30272 13.5523L6.30272 13.5523L6.10812 14.5332ZM9.33664 16.3779L8.63972 17.0951L9.49182 17.9231L10.1622 16.9422L9.33664 16.3779ZM12.53 14.2188L12.7436 15.1957L13.4672 15.0374L13.5268 14.2992L12.53 14.2188ZM21.6736 4.52344L21.8122 5.51378L23.0855 5.3355L22.5993 4.14526L21.6736 4.52344ZM23.6267 35.8096V34.8096H23.6267L23.6267 35.8096ZM15.6843 43.752L14.6843 43.7519V43.752H15.6843ZM23.6267 51.6943L23.6267 52.6943H23.6267V51.6943ZM31.5691 43.752H32.5691V43.7519L31.5691 43.752ZM56.7595 35.8096V34.8096H56.7595L56.7595 35.8096ZM48.8171 43.752L47.8171 43.7519V43.752H48.8171ZM56.7595 51.6943L56.7595 52.6943H56.7595V51.6943ZM64.7019 43.752H65.7019V43.7519L64.7019 43.752ZM23.6599 39.6152L23.6599 38.6152H23.6599V39.6152ZM28.0612 44.0166L29.0612 44.0166V44.0166H28.0612ZM23.6599 48.418V49.418H23.6599L23.6599 48.418ZM19.2585 44.0166H18.2585V44.0166L19.2585 44.0166ZM57.0349 39.6152L57.0349 38.6152H57.0349V39.6152ZM61.4362 44.0166L62.4362 44.0166V44.0166H61.4362ZM57.0349 48.418V49.418H57.0349L57.0349 48.418ZM52.6335 44.0166H51.6335V44.0166L52.6335 44.0166ZM11.1784 20.3164L10.1784 20.3163V20.3164H11.1784ZM11.1784 41.8057H10.1784V42.8057H11.1784V41.8057ZM13.904 41.8057V42.8057H14.7239L14.8846 42.0016L13.904 41.8057ZM23.6267 33.8359V32.8359H23.6267L23.6267 33.8359ZM33.3493 41.8066L32.3687 42.0025L32.5293 42.8066H33.3493V41.8066ZM47.0368 41.8066V42.8066H47.8568L48.0175 42.0025L47.0368 41.8066ZM56.7595 33.8359V32.8359H56.7595L56.7595 33.8359ZM66.4831 41.8066L65.5025 42.0025L65.6631 42.8066H66.4831V41.8066ZM68.9568 41.8066V42.8066H69.9568V41.8066H68.9568ZM68.9568 20.3164H69.9568V20.3163L68.9568 20.3164ZM44.1374 19.3037L44.1374 18.3037H44.1374V19.3037ZM49.9187 24.2754L48.9288 24.4171L49.02 25.0548L49.6385 25.2353L49.9187 24.2754ZM49.9206 31.8184L49.64 30.8586L49.0207 31.0396L48.9305 31.6785L49.9206 31.8184ZM44.1374 36.793V37.793H44.1375L44.1374 36.793ZM30.4734 31.8184L31.4635 31.6785L31.3733 31.0399L30.7543 30.8586L30.4734 31.8184ZM30.4734 24.2764L30.7543 25.2361L31.373 25.055L31.4635 24.4166L30.4734 24.2764ZM36.2575 19.3037V18.3037H36.2575L36.2575 19.3037ZM32.5691 31.9893V30.9893H31.2086L31.6146 32.2877L32.5691 31.9893ZM32.6628 32.2891L31.7084 32.5875L31.7146 32.6074L31.7216 32.627L32.6628 32.2891ZM44.1374 34.8193V35.8193H44.1375L44.1374 34.8193ZM47.8239 31.9893L48.79 32.2477L49.1267 30.9893H47.8239V31.9893ZM31.7097 26.0791V25.0791H31.7096L31.7097 26.0791ZM31.7097 30.0156L31.7096 31.0156H31.7096L31.7097 30.0156ZM48.6843 30.0166L48.6842 31.0166H48.6843V30.0166ZM36.2585 21.2764V20.2764H36.2582L36.2585 21.2764ZM32.57 24.1064L31.6041 23.8476L31.2668 25.1064H32.57V24.1064ZM47.8249 24.1064V25.1064H49.1276L48.7909 23.848L47.8249 24.1064ZM44.1374 21.2764L44.1374 20.2764H44.1374V21.2764ZM15.7146 14.0986L14.7246 13.9574L14.5618 15.0986H15.7146V14.0986ZM33.3337 14.0986V15.0986H34.4865L34.3237 13.9574L33.3337 14.0986ZM25.7653 7.47852L25.7654 6.47852H25.7653V7.47852ZM57.6775 9.02344H56.6775V9.02352L57.6775 9.02344ZM62.7527 14.0986L62.7526 15.0986H62.7527V14.0986ZM67.8288 9.02344L68.8288 9.02352V9.02344H67.8288ZM67.8288 8.36426H68.8288V7.36426H67.8288V8.36426ZM57.6775 8.36426V7.36426H56.6775V8.36426H57.6775ZM47.2937 14.0977H46.2937V15.0977H47.2937V14.0977ZM52.0466 14.0977V15.0977H53.0466V14.0977H52.0466ZM52.0466 5.12305H53.0466V4.12305H52.0466V5.12305ZM47.2937 5.12305V4.12305H46.2937V5.12305H47.2937ZM24.5691 1.97266L24.5693 0.972656H24.5691V1.97266ZM24.5691 4.41797V5.41797H24.5693L24.5691 4.41797ZM24.5691 0L24.569 1C25.5447 1.0001 26.1264 1.45061 26.4375 2.02824C26.7734 2.65204 26.8124 3.46948 26.5368 4.14442L27.4626 4.52246L28.3884 4.9005C28.8829 3.68947 28.8262 2.24582 28.1983 1.07995C27.5456 -0.132084 26.2955 -0.999822 24.5692 -1L24.5691 0ZM27.4626 4.52246L27.3241 5.51282C31.7457 6.13127 35.201 9.75903 35.6164 14.1919L36.612 14.0986L37.6077 14.0053C37.106 8.651 32.9425 4.2792 27.6011 3.5321L27.4626 4.52246ZM36.612 14.0986V15.0986H45.321V14.0986V13.0986H36.612V14.0986ZM45.321 14.0986H46.321V4.13672H45.321H44.321V14.0986H45.321ZM45.321 4.13672H46.321C46.321 4.13652 46.321 4.13732 46.3207 4.13879C46.3204 4.1402 46.32 4.1416 46.3195 4.14285C46.3185 4.14519 46.3175 4.14624 46.3172 4.14659C46.3168 4.14695 46.3158 4.14788 46.3135 4.14885C46.3123 4.14936 46.3109 4.1498 46.3095 4.15009C46.308 4.15039 46.3072 4.15039 46.3073 4.15039V3.15039V2.15039C45.2114 2.15039 44.321 3.0396 44.321 4.13672H45.321ZM46.3073 3.15039V4.15039H53.0329V3.15039V2.15039H46.3073V3.15039ZM53.0329 3.15039V4.15039C53.0332 4.15039 53.0325 4.1504 53.031 4.15011C53.0297 4.14983 53.0283 4.1494 53.0271 4.14888C53.0247 4.14789 53.0236 4.14691 53.0232 4.14647C53.0227 4.14603 53.0218 4.14493 53.0208 4.14259C53.0202 4.14135 53.0198 4.13998 53.0195 4.13861C53.0192 4.13719 53.0193 4.13644 53.0193 4.13672H54.0193H55.0193C55.0193 3.03993 54.1297 2.15039 53.0329 2.15039V3.15039ZM54.0193 4.13672H53.0193V14.0986H54.0193H55.0193V4.13672H54.0193ZM54.0193 14.0986V15.0986H57.8708V14.0986V13.0986H54.0193V14.0986ZM57.8708 14.0986L58.5641 13.3779C57.4167 12.2742 56.7039 10.7302 56.7038 9.0224L55.7038 9.02246L54.7038 9.02252C54.704 11.2998 55.657 13.3567 57.1776 14.8193L57.8708 14.0986ZM55.7038 9.02246H56.7038C56.7038 8.75311 56.6857 8.36223 56.6815 8.13194C56.6764 7.84736 56.6843 7.63034 56.7125 7.46674C56.7419 7.2961 56.7763 7.29015 56.737 7.33199C56.666 7.40781 56.6007 7.39063 56.6902 7.39062L56.6902 6.39062L56.6901 5.39062C56.153 5.39066 55.6512 5.56587 55.2777 5.9644C54.9361 6.32894 54.8021 6.77602 54.7416 7.12672C54.6799 7.48445 54.6762 7.85706 54.6819 8.1684C54.6885 8.53403 54.7038 8.74534 54.7038 9.02246H55.7038ZM56.6902 6.39062V7.39062H68.8152V6.39062V5.39062H56.6902V6.39062ZM68.8152 6.39062L68.815 7.39062C68.9043 7.39064 68.839 7.40774 68.768 7.33197C68.7288 7.29017 68.7631 7.29616 68.7926 7.46677C68.8208 7.63036 68.8288 7.84736 68.8237 8.13193C68.8195 8.36195 68.8015 8.75337 68.8015 9.02246H69.8015H70.8015C70.8015 8.74486 70.8167 8.53398 70.8233 8.16805C70.829 7.85668 70.8252 7.4841 70.7634 7.12642C70.7029 6.77577 70.5689 6.32882 70.2273 5.96438C69.854 5.56596 69.3523 5.39071 68.8153 5.39062L68.8152 6.39062ZM69.8015 9.02246L68.8015 9.02266C68.8018 10.7586 68.0653 12.3255 66.8842 13.4325L67.5681 14.1621L68.2519 14.8917C69.8169 13.425 70.8019 11.3377 70.8015 9.02227L69.8015 9.02246ZM67.5681 14.1621L67.412 15.1499C69.4234 15.4676 70.9665 17.2159 70.9665 19.3135H71.9665H72.9665C72.9665 16.2151 70.691 13.6431 67.7241 13.1744L67.5681 14.1621ZM71.9665 19.3135H70.9665V43.752H71.9665H72.9665V19.3135H71.9665ZM71.9665 43.752H70.9665C70.9665 43.752 70.9665 43.751 70.9669 43.7494C70.9672 43.7479 70.9676 43.7465 70.9682 43.7452C70.9692 43.7428 70.9701 43.7419 70.9703 43.7417C70.9705 43.7414 70.9714 43.7406 70.9735 43.7397C70.9746 43.7392 70.9759 43.7388 70.9773 43.7386C70.9787 43.7383 70.9794 43.7383 70.9792 43.7383V44.7383V45.7383C72.075 45.7383 72.9665 44.8492 72.9665 43.752H71.9665ZM70.9792 44.7383V43.7383H66.6267V44.7383V45.7383H70.9792V44.7383ZM66.6267 44.7383L65.6316 44.6396C65.1851 49.1397 61.3748 52.668 56.7595 52.668V53.668V54.668C62.4141 54.668 67.075 50.349 67.6218 44.837L66.6267 44.7383ZM56.7595 53.668L56.7595 52.668C52.1453 52.6679 48.3349 49.1397 47.8884 44.6396L46.8933 44.7383L45.8982 44.837C46.445 50.3489 51.1058 54.6679 56.7595 54.668L56.7595 53.668ZM46.8933 44.7383V43.7383H33.4929V44.7383V45.7383H46.8933V44.7383ZM33.4929 44.7383L32.4978 44.6396C32.0513 49.1398 28.2414 52.668 23.6267 52.668V53.668V54.668C29.2809 54.668 33.9412 50.3489 34.488 44.837L33.4929 44.7383ZM23.6267 53.668L23.6267 52.668C19.0113 52.6679 15.2016 49.1393 14.7556 44.6387L13.7605 44.7373L12.7653 44.8359C13.3116 50.3483 17.9717 54.6679 23.6267 54.668L23.6267 53.668ZM13.7605 44.7373V43.7373H9.41672V44.7373V45.7373H13.7605V44.7373ZM9.41672 44.7373V43.7373C9.41651 43.7373 9.41732 43.7373 9.41879 43.7376C9.4202 43.7379 9.4216 43.7383 9.42284 43.7389C9.42518 43.7398 9.42623 43.7408 9.42659 43.7412C9.42694 43.7415 9.42787 43.7425 9.42884 43.7448C9.42936 43.7461 9.4298 43.7474 9.43009 43.7488C9.43039 43.7503 9.43039 43.7511 9.43039 43.751H8.43039H7.43039C7.43039 44.847 8.3196 45.7373 9.41672 45.7373V44.7373ZM8.43039 43.751H9.43039V19.3135H8.43039H7.43039V43.751H8.43039ZM8.43039 19.3135H9.43039C9.43039 19.192 9.43626 19.069 9.44713 18.9441L8.4509 18.8574L7.45466 18.7707C7.43937 18.9464 7.43039 19.1277 7.43039 19.3135H8.43039ZM8.4509 18.8574L9.25536 18.2634C8.78066 17.6205 7.99071 16.2381 5.91864 15.8277L5.72433 16.8086L5.53002 17.7895C6.72198 18.0256 7.08288 18.6882 7.64643 19.4514L8.4509 18.8574ZM5.72433 16.8086L5.91845 15.8276C3.99011 15.446 2.59692 16.1712 1.706 16.652C1.20112 16.9245 1.00935 17.0227 0.883685 17.0454C0.865193 17.0487 0.918034 17.0373 0.992747 17.0686C1.06151 17.0975 1.06015 17.1259 1.00565 17.0508L0.196012 17.6377L-0.613621 18.2246C-0.40685 18.5099 -0.137078 18.7634 0.218309 18.9126C0.579648 19.0644 0.934615 19.0686 1.23941 19.0135C1.76031 18.9193 2.29973 18.6043 2.65592 18.412C3.48712 17.9634 4.33553 17.5532 5.53021 17.7896L5.72433 16.8086ZM0.196012 17.6377L1.00551 17.0506C0.984395 17.0215 0.99101 17.0208 0.99738 17.0478C1.00038 17.0605 1.00236 17.0756 1.0025 17.0916C1.00263 17.1075 1.00091 17.1206 0.998993 17.1298L0.0202308 16.9248L-0.958532 16.7198C-1.07105 17.257 -0.936188 17.7799 -0.613482 18.2248L0.196012 17.6377ZM0.0202308 16.9248L0.995738 16.7048C1.03057 16.8593 0.897799 16.8383 1.16935 16.6038C1.42181 16.3858 1.85948 16.1445 2.44412 15.9347C3.62672 15.5104 5.04297 15.3414 5.91352 15.5141L6.10812 14.5332L6.30272 13.5523C4.96254 13.2864 3.16314 13.5518 1.76864 14.0522C1.06472 14.3048 0.373473 14.6485 -0.137924 15.0902C-0.630236 15.5154 -1.1618 16.2289 -0.955276 17.1448L0.0202308 16.9248ZM6.10812 14.5332L5.91352 15.5141C6.73756 15.6776 7.84191 16.3198 8.63972 17.0951L9.33664 16.3779L10.0336 15.6608C9.04975 14.7047 7.61324 13.8123 6.30272 13.5523L6.10812 14.5332ZM9.33664 16.3779L10.1622 16.9422C10.7611 16.066 11.6796 15.4284 12.7436 15.1957L12.53 14.2188L12.3164 13.2418C10.7408 13.5864 9.38989 14.5277 8.51103 15.8137L9.33664 16.3779ZM12.53 14.2188L13.5268 14.2992C13.891 9.78456 17.3728 6.13534 21.8122 5.51378L21.6736 4.52344L21.5349 3.5331C16.1739 4.2837 11.9733 8.68404 11.5332 14.1383L12.53 14.2188ZM21.6736 4.52344L22.5993 4.14526C22.3237 3.4706 22.3628 2.65301 22.6992 2.02883C23.0107 1.45073 23.5931 1 24.5691 1V0V-1C22.8424 -1 21.5918 -0.132056 20.9386 1.08004C20.3102 2.24606 20.2529 3.69018 20.7478 4.90161L21.6736 4.52344ZM23.6267 35.8096L23.6267 34.8096C18.6948 34.8097 14.6844 38.8201 14.6843 43.7519L15.6843 43.752L16.6843 43.752C16.6844 39.9246 19.7994 36.8096 23.6267 36.8096L23.6267 35.8096ZM15.6843 43.752H14.6843C14.6843 48.684 18.6953 52.6942 23.6267 52.6943L23.6267 51.6943L23.6267 50.6943C19.7997 50.6943 16.6843 47.5793 16.6843 43.752H15.6843ZM23.6267 51.6943V52.6943C28.5582 52.6943 32.5691 48.684 32.5691 43.752H31.5691H30.5691C30.5691 47.5794 27.4537 50.6943 23.6267 50.6943V51.6943ZM31.5691 43.752L32.5691 43.7519C32.569 38.8199 28.5576 34.8096 23.6267 34.8096V35.8096V36.8096C27.4531 36.8096 30.569 39.9246 30.5691 43.752L31.5691 43.752ZM56.7595 35.8096L56.7595 34.8096C51.8276 34.8097 47.8172 38.8201 47.8171 43.7519L48.8171 43.752L49.8171 43.752C49.8172 39.9246 52.9322 36.8096 56.7595 36.8096L56.7595 35.8096ZM48.8171 43.752H47.8171C47.8171 48.6839 51.8276 52.6942 56.7595 52.6943L56.7595 51.6943L56.7595 50.6943C52.9321 50.6943 49.8171 47.5793 49.8171 43.752H48.8171ZM56.7595 51.6943V52.6943C61.6915 52.6943 65.7019 48.684 65.7019 43.752H64.7019H63.7019C63.7019 47.5794 60.5869 50.6943 56.7595 50.6943V51.6943ZM64.7019 43.752L65.7019 43.7519C65.7018 38.82 61.6915 34.8096 56.7595 34.8096V35.8096V36.8096C60.5869 36.8096 63.7018 39.9246 63.7019 43.752L64.7019 43.752ZM23.6599 39.6152L23.6599 40.6152C25.5385 40.6153 27.0612 42.138 27.0612 44.0166H28.0612H29.0612C29.0612 41.0334 26.6431 38.6153 23.6599 38.6152L23.6599 39.6152ZM28.0612 44.0166L27.0612 44.0166C27.0612 45.8952 25.5384 47.4179 23.6599 47.418L23.6599 48.418L23.6599 49.418C26.643 49.4179 29.0611 46.9997 29.0612 44.0166L28.0612 44.0166ZM23.6599 48.418V47.418C21.7813 47.418 20.2586 45.8952 20.2585 44.0166L19.2585 44.0166L18.2585 44.0166C18.2587 46.9997 20.6767 49.418 23.6599 49.418V48.418ZM19.2585 44.0166H20.2585C20.2585 42.1379 21.7812 40.6152 23.6599 40.6152V39.6152V38.6152C20.6766 38.6152 18.2585 41.0334 18.2585 44.0166H19.2585ZM57.0349 39.6152L57.0349 40.6152C58.9135 40.6153 60.4362 42.138 60.4362 44.0166H61.4362H62.4362C62.4362 41.0334 60.0181 38.6153 57.0349 38.6152L57.0349 39.6152ZM61.4362 44.0166L60.4362 44.0166C60.4362 45.8952 58.9134 47.4179 57.0349 47.418L57.0349 48.418L57.0349 49.418C60.0181 49.4179 62.4361 46.9997 62.4362 44.0166L61.4362 44.0166ZM57.0349 48.418V47.418C55.1563 47.418 53.6336 45.8952 53.6335 44.0166L52.6335 44.0166L51.6335 44.0166C51.6337 46.9997 54.0517 49.418 57.0349 49.418V48.418ZM52.6335 44.0166H53.6335C53.6335 42.1379 55.1562 40.6152 57.0349 40.6152V39.6152V38.6152C54.0516 38.6152 51.6335 41.0334 51.6335 44.0166H52.6335ZM14.323 17.3457V16.3457C12.0915 16.3457 10.1787 18.0737 10.1784 20.3163L11.1784 20.3164L12.1784 20.3165C12.1785 19.2838 13.0876 18.3457 14.323 18.3457V17.3457ZM11.1784 20.3164H10.1784V41.8057H11.1784H12.1784V20.3164H11.1784ZM11.1784 41.8057V42.8057H13.904V41.8057V40.8057H11.1784V41.8057ZM13.904 41.8057L14.8846 42.0016C15.7002 37.9205 19.3121 34.836 23.6267 34.8359L23.6267 33.8359L23.6267 32.8359C18.3381 32.836 13.9218 36.6138 12.9234 41.6097L13.904 41.8057ZM23.6267 33.8359V34.8359C27.9417 34.8359 31.5534 37.9206 32.3687 42.0025L33.3493 41.8066L34.33 41.6108C33.332 36.614 28.9157 32.8359 23.6267 32.8359V33.8359ZM33.3493 41.8066V42.8066H47.0368V41.8066V40.8066H33.3493V41.8066ZM47.0368 41.8066L48.0175 42.0025C48.8328 37.9209 52.445 34.836 56.7595 34.8359L56.7595 33.8359L56.7595 32.8359C51.471 32.836 47.0543 36.6144 46.0562 41.6107L47.0368 41.8066ZM56.7595 33.8359V34.8359C61.0742 34.8359 64.6871 37.9207 65.5025 42.0025L66.4831 41.8066L67.4637 41.6108C66.4656 36.6139 62.048 32.8359 56.7595 32.8359V33.8359ZM66.4831 41.8066V42.8066H68.9568V41.8066V40.8066H66.4831V41.8066ZM68.9568 41.8066H69.9568V20.3164H68.9568H67.9568V41.8066H68.9568ZM68.9568 20.3164L69.9568 20.3163C69.9565 18.0736 68.0431 16.3457 65.8122 16.3457V17.3457V18.3457C67.0472 18.3457 67.9566 19.2839 67.9568 20.3165L68.9568 20.3164ZM65.8122 17.3457V16.3457H14.323V17.3457V18.3457H65.8122V17.3457ZM44.1374 19.3037L44.1374 20.3037C45.5633 20.3037 46.6899 20.9064 47.5081 21.7381C48.3445 22.5883 48.8174 23.6387 48.9288 24.4171L49.9187 24.2754L50.9086 24.1337C50.7327 22.9047 50.0492 21.4693 48.9338 20.3355C47.8003 19.1832 46.18 18.3037 44.1374 18.3037L44.1374 19.3037ZM49.9187 24.2754L49.6385 25.2353C50.8855 25.5994 51.5738 26.7543 51.574 28.0466C51.5742 29.3389 50.8862 30.4941 49.64 30.8586L49.9206 31.8184L50.2013 32.7782C52.4933 32.1079 53.5743 30.0084 53.574 28.0462C53.5737 26.084 52.4918 23.9848 50.1989 23.3155L49.9187 24.2754ZM49.9206 31.8184L48.9305 31.6785C48.8208 32.4549 48.3477 33.5056 47.5098 34.3569C46.6901 35.1897 45.5618 35.7929 44.1374 35.793L44.1374 36.793L44.1375 37.793C46.1791 37.7929 47.8007 36.9125 48.9352 35.7598C50.0514 34.6258 50.7369 33.1892 50.9108 31.9582L49.9206 31.8184ZM44.1374 36.793V35.793H36.2575V36.793V37.793H44.1374V36.793ZM36.2575 36.793V35.793C34.8333 35.793 33.7048 35.1898 32.8847 34.3569C32.0464 33.5055 31.5732 32.4548 31.4635 31.6785L30.4734 31.8184L29.4832 31.9582C29.6571 33.1894 30.343 34.626 31.4595 35.76C32.5943 36.9126 34.2161 37.793 36.2575 37.793V36.793ZM30.4734 31.8184L30.7543 30.8586C29.5088 30.494 28.8211 29.3393 28.8211 28.0473C28.8211 26.7554 29.5087 25.6007 30.7543 25.2361L30.4734 24.2764L30.1924 23.3166C27.9016 23.9872 26.8211 26.0859 26.8211 28.0473C26.8211 30.0088 27.9016 32.1075 30.1924 32.7781L30.4734 31.8184ZM30.4734 24.2764L31.4635 24.4166C31.5735 23.6402 32.0469 22.59 32.8851 21.7391C33.7051 20.9066 34.8335 20.3038 36.2576 20.3037L36.2575 19.3037L36.2575 18.3037C34.2166 18.3038 32.5951 19.1836 31.4603 20.3356C30.3438 21.4691 29.6576 22.9051 29.4832 24.1361L30.4734 24.2764ZM36.2575 19.3037V20.3037H44.1374V19.3037V18.3037H36.2575V19.3037ZM32.5691 31.9893L31.6146 32.2877L31.7084 32.5875L32.6628 32.2891L33.6172 31.9906L33.5235 31.6908L32.5691 31.9893ZM32.6628 32.2891L31.7216 32.627C32.3886 34.4847 34.168 35.8193 36.2575 35.8193V34.8193V33.8193C35.0398 33.8193 33.9953 33.041 33.604 31.9511L32.6628 32.2891ZM36.2575 34.8193V35.8193H44.1374V34.8193V33.8193H36.2575V34.8193ZM44.1374 34.8193L44.1375 35.8193C46.3659 35.8192 48.2406 34.3011 48.79 32.2477L47.8239 31.9893L46.8579 31.7308C46.5362 32.9332 45.436 33.8192 44.1373 33.8193L44.1374 34.8193ZM47.8239 31.9893V30.9893H32.5691V31.9893V32.9893H47.8239V31.9893ZM31.7097 26.0791L31.7096 25.0791C30.7861 25.0792 30.0224 25.4405 29.501 26.0347C28.9966 26.6095 28.7668 27.3456 28.7668 28.0472C28.7667 28.7489 28.9962 29.4851 29.5007 30.06C30.0221 30.6543 30.786 31.0156 31.7096 31.0156L31.7097 30.0156L31.7098 29.0156C31.3378 29.0156 31.1302 28.8847 31.004 28.7409C30.8609 28.5778 30.7667 28.3299 30.7668 28.0475C30.7668 27.7651 30.861 27.5171 31.0043 27.3538C31.1305 27.2099 31.3382 27.0791 31.7098 27.0791L31.7097 26.0791ZM31.7097 30.0156L31.7096 31.0156L48.6842 31.0166L48.6843 30.0166L48.6843 29.0166L31.7097 29.0156L31.7097 30.0156ZM48.6843 30.0166V31.0166C49.6078 31.0166 50.3715 30.6551 50.8927 30.0606C51.3969 29.4856 51.6263 28.7494 51.6263 28.0479C51.6263 27.3463 51.3969 26.6101 50.8927 26.0351C50.3715 25.4406 49.6078 25.0791 48.6843 25.0791V26.0791V27.0791C49.0555 27.0791 49.2628 27.2098 49.3889 27.3536C49.5321 27.5169 49.6263 27.7651 49.6263 28.0479C49.6263 28.3306 49.5321 28.5788 49.3889 28.7421C49.2628 28.8859 49.0555 29.0166 48.6843 29.0166V30.0166ZM48.6843 26.0791V25.0791H31.7097V26.0791V27.0791H48.6843V26.0791ZM36.2585 21.2764L36.2582 20.2764C34.0303 20.277 32.1542 21.7945 31.6041 23.8476L32.57 24.1064L33.536 24.3652C33.858 23.1633 34.9594 22.2767 36.2588 22.2764L36.2585 21.2764ZM32.57 24.1064V25.1064H47.8249V24.1064V23.1064H32.57V24.1064ZM47.8249 24.1064L48.7909 23.848C48.2415 21.7941 46.3652 20.2764 44.1374 20.2764L44.1374 21.2764L44.1374 22.2764C45.436 22.2764 46.5373 23.1627 46.8589 24.3649L47.8249 24.1064ZM44.1374 21.2764V20.2764H36.2585V21.2764V22.2764H44.1374V21.2764ZM23.2839 7.47852V6.47852C18.9254 6.47852 15.3261 9.74096 14.7246 13.9574L15.7146 14.0986L16.7045 14.2399C17.1699 10.978 19.9517 8.47852 23.2839 8.47852V7.47852ZM15.7146 14.0986V15.0986H33.3337V14.0986V13.0986H15.7146V14.0986ZM33.3337 14.0986L34.3237 13.9574C33.7222 9.74206 30.1241 6.47855 25.7654 6.47852L25.7653 7.47852L25.7653 8.47852C29.0972 8.47854 31.8784 10.9786 32.3437 14.2399L33.3337 14.0986ZM25.7653 7.47852V6.47852H23.2839V7.47852V8.47852H25.7653V7.47852ZM57.6775 9.02344L56.6775 9.02352C56.6777 12.3739 59.4015 15.0985 62.7526 15.0986L62.7527 14.0986L62.7527 13.0986C60.5063 13.0986 58.6776 11.2695 58.6775 9.02336L57.6775 9.02344ZM62.7527 14.0986V15.0986C66.1037 15.0986 68.8286 12.3742 68.8288 9.02352L67.8288 9.02344L66.8288 9.02336C66.8286 11.2693 64.9993 13.0986 62.7527 13.0986V14.0986ZM67.8288 9.02344H68.8288V8.36426H67.8288H66.8288V9.02344H67.8288ZM67.8288 8.36426V7.36426H57.6775V8.36426V9.36426H67.8288V8.36426ZM57.6775 8.36426H56.6775V9.02344H57.6775H58.6775V8.36426H57.6775ZM47.2937 14.0977V15.0977H52.0466V14.0977V13.0977H47.2937V14.0977ZM52.0466 14.0977H53.0466V5.12305H52.0466H51.0466V14.0977H52.0466ZM52.0466 5.12305V4.12305H47.2937V5.12305V6.12305H52.0466V5.12305ZM47.2937 5.12305H46.2937V14.0977H47.2937H48.2937V5.12305H47.2937ZM24.5691 1.97266V0.972656C23.8909 0.972656 23.311 1.24078 22.9123 1.69527C22.5306 2.13039 22.3624 2.68011 22.3624 3.19531C22.3624 3.71051 22.5306 4.26023 22.9123 4.69535C23.311 5.14984 23.8909 5.41797 24.5691 5.41797V4.41797V3.41797C24.4967 3.41797 24.4601 3.40475 24.4464 3.3987C24.4328 3.39265 24.4241 3.38585 24.4158 3.37643C24.3953 3.35305 24.3624 3.29144 24.3624 3.19531C24.3624 3.09919 24.3953 3.03758 24.4158 3.0142C24.4241 3.00478 24.4328 2.99798 24.4464 2.99193C24.4601 2.98588 24.4967 2.97266 24.5691 2.97266V1.97266ZM24.5691 4.41797L24.5693 5.41797C25.2474 5.41779 25.8271 5.14965 26.2257 4.69523C26.6074 4.26016 26.7756 3.71051 26.7756 3.19531C26.7756 2.68012 26.6074 2.13047 26.2257 1.69539C25.8271 1.24098 25.2474 0.972839 24.5693 0.972656L24.5691 1.97266L24.5688 2.97266C24.6412 2.97268 24.6779 2.98591 24.6916 2.99198C24.7053 2.99806 24.714 3.00489 24.7223 3.01432C24.7428 3.03772 24.7756 3.09929 24.7756 3.19531C24.7756 3.29134 24.7428 3.35291 24.7223 3.3763C24.714 3.38574 24.7053 3.39256 24.6916 3.39864C24.6779 3.40472 24.6412 3.41795 24.5688 3.41797L24.5691 4.41797Z" fill="#A31D1D" mask="url(#path-1-inside-1_1001_310)"/>
</svg>
