<svg width="212" height="58" viewBox="0 0 212 58" fill="none" xmlns="http://www.w3.org/2000/svg">
<path d="M88.1664 6.58927H93.6279V20.5818C93.6213 21.9106 93.2857 23.08 92.6213 24.0899C91.9636 25.0931 91.0533 25.8771 89.8906 26.4419C88.7345 27 87.4024 27.2791 85.8942 27.2791C84.5853 27.2791 83.3893 27.0532 82.3063 26.6014C81.2233 26.1429 80.3596 25.4253 79.7151 24.4487C79.0706 23.4653 78.7517 22.1897 78.7584 20.6216H84.2996C84.3195 21.1332 84.4059 21.5651 84.5587 21.9173C84.7181 22.2694 84.9374 22.5352 85.2165 22.7145C85.5021 22.8873 85.8476 22.9737 86.2529 22.9737C86.6649 22.9737 87.0104 22.884 87.2894 22.7046C87.5751 22.5252 87.791 22.2594 87.9372 21.9073C88.0834 21.5485 88.1598 21.1067 88.1664 20.5818V6.58927ZM96.254 27V6.58927H110.964V11.0541H101.795V14.5622H110.207V19.0271H101.795V22.5352H110.924V27H96.254ZM113.712 27V6.58927H119.253V22.5352H127.505V27H113.712ZM135.047 27H129.068L135.805 6.58927H143.379L150.116 27H144.136L139.672 12.2102H139.512L135.047 27ZM133.931 18.9473H145.173V23.0933H133.931V18.9473ZM160.493 6.58927H165.955V20.5818C165.948 21.9106 165.613 23.08 164.948 24.0899C164.291 25.0931 163.38 25.8771 162.218 26.4419C161.062 27 159.729 27.2791 158.221 27.2791C156.912 27.2791 155.716 27.0532 154.633 26.6014C153.55 26.1429 152.687 25.4253 152.042 24.4487C151.398 23.4653 151.079 22.1897 151.085 20.6216H156.627C156.647 21.1332 156.733 21.5651 156.886 21.9173C157.045 22.2694 157.264 22.5352 157.543 22.7145C157.829 22.8873 158.175 22.9737 158.58 22.9737C158.992 22.9737 159.337 22.884 159.616 22.7046C159.902 22.5252 160.118 22.2594 160.264 21.9073C160.41 21.5485 160.487 21.1067 160.493 20.5818V6.58927ZM173.883 27H167.903L174.64 6.58927H182.215L188.952 27H182.972L178.507 12.2102H178.348L173.883 27ZM172.767 18.9473H184.009V23.0933H172.767V18.9473ZM190.918 27V6.58927H196.459V14.5622H203.794V6.58927H209.335V27H203.794V19.0271H196.459V27H190.918Z" fill="#A31D1D"/>
<path d="M79.3155 50.4141V30.0033H84.8567V38.2553H85.1358L91.2749 30.0033H97.733L90.8364 39.0925L97.8925 50.4141H91.2749L86.6905 42.76L84.8567 45.1519V50.4141H79.3155ZM111.456 30.0033H116.998V43.079C116.998 44.6337 116.626 45.9791 115.881 47.1153C115.144 48.2448 114.114 49.1185 112.792 49.7364C111.47 50.3476 109.935 50.6533 108.188 50.6533C106.427 50.6533 104.885 50.3476 103.563 49.7364C102.241 49.1185 101.211 48.2448 100.474 47.1153C99.7429 45.9791 99.3774 44.6337 99.3774 43.079V30.0033H104.919V42.6006C104.919 43.2318 105.058 43.7965 105.337 44.2948C105.616 44.7865 106.002 45.1719 106.493 45.4509C106.992 45.73 107.556 45.8695 108.188 45.8695C108.825 45.8695 109.39 45.73 109.882 45.4509C110.373 45.1719 110.759 44.7865 111.038 44.2948C111.317 43.7965 111.456 43.2318 111.456 42.6006V30.0033ZM119.631 50.4141V30.0033H125.172V45.9492H133.424V50.4141H119.631ZM141.205 30.0033V50.4141H135.664V30.0033H141.205ZM161.492 30.0033V50.4141H156.867L149.492 39.6905H149.373V50.4141H143.832V30.0033H148.536L155.791 40.6871H155.95V30.0033H161.492ZM164.113 50.4141V30.0033H178.823V34.4682H169.654V37.9763H178.065V42.4411H169.654V45.9492H178.783V50.4141H164.113ZM181.571 50.4141V30.0033H190.381C191.896 30.0033 193.221 30.2791 194.358 30.8305C195.494 31.382 196.377 32.176 197.009 33.2124C197.64 34.2489 197.955 35.4914 197.955 36.9398C197.955 38.4015 197.63 39.634 196.979 40.6372C196.334 41.6405 195.427 42.3979 194.258 42.9095C193.095 43.4211 191.736 43.6769 190.182 43.6769H184.92V39.3715H189.066C189.717 39.3715 190.271 39.2918 190.73 39.1324C191.195 38.9662 191.55 38.7038 191.796 38.345C192.049 37.9862 192.175 37.5178 192.175 36.9398C192.175 36.3551 192.049 35.8801 191.796 35.5146C191.55 35.1426 191.195 34.8702 190.73 34.6974C190.271 34.518 189.717 34.4283 189.066 34.4283H187.112V50.4141H181.571ZM193.53 41.0459L198.633 50.4141H192.614L187.63 41.0459H193.53Z" fill="#A31D1D"/>
<mask id="path-3-inside-1_811_200" fill="white">
<path d="M24.5684 0C27.2712 0 28.2328 2.63731 27.4619 4.52344C32.3429 5.20662 36.1519 9.20534 36.6104 14.0986H45.3174V4.13672C45.3174 3.59235 45.7599 3.15061 46.3037 3.15039H53.0303C53.5747 3.1505 54.0166 3.59228 54.0166 4.13672V14.0986H57.8701C56.5362 12.8155 55.7032 11.0149 55.7031 9.02246C55.7031 7.92961 55.4366 6.39094 56.6895 6.39062H68.8145C70.0672 6.39062 69.8008 7.92901 69.8008 9.02246C69.8012 11.0485 68.9398 12.8752 67.5664 14.1621C70.0548 14.556 71.9629 16.716 71.9629 19.3135V43.752C71.9629 44.2958 71.5209 44.738 70.9766 44.7383H66.627C66.1303 49.7443 61.8947 53.668 56.7598 53.668C51.6259 53.6678 47.3902 49.7442 46.8936 44.7383H33.4961C32.9995 49.7443 28.7643 53.6679 23.6299 53.668C18.4946 53.668 14.2598 49.7438 13.7637 44.7373H9.41309C8.86865 44.7372 8.42676 44.2949 8.42676 43.751V19.3135C8.42676 19.1585 8.43493 19.0051 8.44824 18.8535C7.92987 18.1506 7.3535 17.1313 5.72461 16.8086C2.60158 16.1906 1.24141 19.0794 0.196289 17.6377C0.0206464 17.3956 -0.0280521 17.1566 0.0205078 16.9248C-0.322956 15.4019 3.89764 14.0946 6.1084 14.5332C7.17468 14.7448 8.44335 15.5113 9.33398 16.376C10.0732 15.2953 11.2085 14.506 12.5283 14.2178C12.9309 9.23309 16.773 5.20771 21.6738 4.52246C20.9039 2.63642 21.8661 3.29667e-05 24.5684 0ZM23.6299 35.8096C19.2502 35.8096 15.6866 39.3723 15.6865 43.752C15.6865 48.1317 19.2506 51.6943 23.6299 51.6943C28.009 51.6942 31.5723 48.1316 31.5723 43.752C31.5722 39.3724 28.0085 35.8097 23.6299 35.8096ZM56.7598 35.8096C52.3802 35.8098 48.8175 39.3724 48.8174 43.752C48.8174 48.1316 52.3802 51.6941 56.7598 51.6943C61.1395 51.6943 64.7031 48.1317 64.7031 43.752C64.703 39.3723 61.1395 35.8096 56.7598 35.8096ZM23.6592 39.6152C26.0901 39.6152 28.0605 41.5856 28.0605 44.0166C28.0605 46.4475 26.0901 48.418 23.6592 48.418C21.2283 48.418 19.2579 46.4475 19.2578 44.0166C19.2578 41.5856 21.2282 39.6152 23.6592 39.6152ZM57.0371 39.6152C59.4681 39.6152 61.4395 41.5856 61.4395 44.0166C61.4394 46.4475 59.468 48.418 57.0371 48.418C54.6063 48.4178 52.6358 46.4474 52.6357 44.0166C52.6357 41.5857 54.6063 39.6154 57.0371 39.6152ZM14.3242 17.3457C12.591 17.3459 11.1809 18.6789 11.1807 20.3164V41.8057H13.9072C14.8143 37.2671 18.8283 33.8359 23.6299 33.8359C28.4318 33.836 32.446 37.2673 33.3525 41.8066H47.0371C47.9438 37.2677 51.9584 33.8361 56.7598 33.8359C61.5614 33.8359 65.5766 37.2673 66.4834 41.8066H68.958V20.3164C68.9578 18.6788 67.5474 17.3457 65.8145 17.3457H14.3242ZM44.1348 19.3037C47.6031 19.3037 49.6287 22.268 49.916 24.2754C53.4559 25.3088 53.4561 30.7836 49.918 31.8184C49.6344 33.8258 47.6009 36.7929 44.1348 36.793H36.2549C32.7893 36.7929 30.7542 33.8258 30.4707 31.8184C26.9342 30.7832 26.9341 25.3114 30.4707 24.2764C30.7551 22.269 32.79 19.304 36.2549 19.3037H44.1348ZM32.5664 31.9893L32.6611 32.2891C33.1903 33.7626 34.6015 34.8193 36.2549 34.8193H44.1348C45.8984 34.8193 47.3868 33.6173 47.8223 31.9893H32.5664ZM31.707 26.0791C29.1168 26.0792 29.1158 30.0155 31.707 30.0156L48.6816 30.0166C51.271 30.0166 51.271 26.0791 48.6816 26.0791H31.707ZM36.2559 21.2764C34.4922 21.2769 33.0034 22.4789 32.5674 24.1064H47.8223C47.3867 22.4784 45.8979 21.2764 44.1348 21.2764H36.2559ZM23.2871 7.47852C19.4417 7.47852 16.2512 10.3595 15.7178 14.0986H33.3369C32.8035 10.3604 29.6137 7.47871 25.7686 7.47852H23.2871ZM57.6768 9.02344C57.677 11.8216 59.9533 14.0984 62.752 14.0986C65.5508 14.0986 67.8279 11.8217 67.8281 9.02344V8.36426H57.6768V9.02344ZM47.291 14.0977H52.043V5.12305H47.291V14.0977ZM24.5684 1.97266C22.972 1.97271 22.9597 4.37961 24.5312 4.41699H24.6055C26.1776 4.37972 26.1653 1.97266 24.5684 1.97266Z"/>
</mask>
<path d="M24.5684 0C27.2712 0 28.2328 2.63731 27.4619 4.52344C32.3429 5.20662 36.1519 9.20534 36.6104 14.0986H45.3174V4.13672C45.3174 3.59235 45.7599 3.15061 46.3037 3.15039H53.0303C53.5747 3.1505 54.0166 3.59228 54.0166 4.13672V14.0986H57.8701C56.5362 12.8155 55.7032 11.0149 55.7031 9.02246C55.7031 7.92961 55.4366 6.39094 56.6895 6.39062H68.8145C70.0672 6.39062 69.8008 7.92901 69.8008 9.02246C69.8012 11.0485 68.9398 12.8752 67.5664 14.1621C70.0548 14.556 71.9629 16.716 71.9629 19.3135V43.752C71.9629 44.2958 71.5209 44.738 70.9766 44.7383H66.627C66.1303 49.7443 61.8947 53.668 56.7598 53.668C51.6259 53.6678 47.3902 49.7442 46.8936 44.7383H33.4961C32.9995 49.7443 28.7643 53.6679 23.6299 53.668C18.4946 53.668 14.2598 49.7438 13.7637 44.7373H9.41309C8.86865 44.7372 8.42676 44.2949 8.42676 43.751V19.3135C8.42676 19.1585 8.43493 19.0051 8.44824 18.8535C7.92987 18.1506 7.3535 17.1313 5.72461 16.8086C2.60158 16.1906 1.24141 19.0794 0.196289 17.6377C0.0206464 17.3956 -0.0280521 17.1566 0.0205078 16.9248C-0.322956 15.4019 3.89764 14.0946 6.1084 14.5332C7.17468 14.7448 8.44335 15.5113 9.33398 16.376C10.0732 15.2953 11.2085 14.506 12.5283 14.2178C12.9309 9.23309 16.773 5.20771 21.6738 4.52246C20.9039 2.63642 21.8661 3.29667e-05 24.5684 0ZM23.6299 35.8096C19.2502 35.8096 15.6866 39.3723 15.6865 43.752C15.6865 48.1317 19.2506 51.6943 23.6299 51.6943C28.009 51.6942 31.5723 48.1316 31.5723 43.752C31.5722 39.3724 28.0085 35.8097 23.6299 35.8096ZM56.7598 35.8096C52.3802 35.8098 48.8175 39.3724 48.8174 43.752C48.8174 48.1316 52.3802 51.6941 56.7598 51.6943C61.1395 51.6943 64.7031 48.1317 64.7031 43.752C64.703 39.3723 61.1395 35.8096 56.7598 35.8096ZM23.6592 39.6152C26.0901 39.6152 28.0605 41.5856 28.0605 44.0166C28.0605 46.4475 26.0901 48.418 23.6592 48.418C21.2283 48.418 19.2579 46.4475 19.2578 44.0166C19.2578 41.5856 21.2282 39.6152 23.6592 39.6152ZM57.0371 39.6152C59.4681 39.6152 61.4395 41.5856 61.4395 44.0166C61.4394 46.4475 59.468 48.418 57.0371 48.418C54.6063 48.4178 52.6358 46.4474 52.6357 44.0166C52.6357 41.5857 54.6063 39.6154 57.0371 39.6152ZM14.3242 17.3457C12.591 17.3459 11.1809 18.6789 11.1807 20.3164V41.8057H13.9072C14.8143 37.2671 18.8283 33.8359 23.6299 33.8359C28.4318 33.836 32.446 37.2673 33.3525 41.8066H47.0371C47.9438 37.2677 51.9584 33.8361 56.7598 33.8359C61.5614 33.8359 65.5766 37.2673 66.4834 41.8066H68.958V20.3164C68.9578 18.6788 67.5474 17.3457 65.8145 17.3457H14.3242ZM44.1348 19.3037C47.6031 19.3037 49.6287 22.268 49.916 24.2754C53.4559 25.3088 53.4561 30.7836 49.918 31.8184C49.6344 33.8258 47.6009 36.7929 44.1348 36.793H36.2549C32.7893 36.7929 30.7542 33.8258 30.4707 31.8184C26.9342 30.7832 26.9341 25.3114 30.4707 24.2764C30.7551 22.269 32.79 19.304 36.2549 19.3037H44.1348ZM32.5664 31.9893L32.6611 32.2891C33.1903 33.7626 34.6015 34.8193 36.2549 34.8193H44.1348C45.8984 34.8193 47.3868 33.6173 47.8223 31.9893H32.5664ZM31.707 26.0791C29.1168 26.0792 29.1158 30.0155 31.707 30.0156L48.6816 30.0166C51.271 30.0166 51.271 26.0791 48.6816 26.0791H31.707ZM36.2559 21.2764C34.4922 21.2769 33.0034 22.4789 32.5674 24.1064H47.8223C47.3867 22.4784 45.8979 21.2764 44.1348 21.2764H36.2559ZM23.2871 7.47852C19.4417 7.47852 16.2512 10.3595 15.7178 14.0986H33.3369C32.8035 10.3604 29.6137 7.47871 25.7686 7.47852H23.2871ZM57.6768 9.02344C57.677 11.8216 59.9533 14.0984 62.752 14.0986C65.5508 14.0986 67.8279 11.8217 67.8281 9.02344V8.36426H57.6768V9.02344ZM47.291 14.0977H52.043V5.12305H47.291V14.0977ZM24.5684 1.97266C22.972 1.97271 22.9597 4.37961 24.5312 4.41699H24.6055C26.1776 4.37972 26.1653 1.97266 24.5684 1.97266Z" fill="white"/>
<path d="M24.5684 0V-1H24.5683L24.5684 0ZM27.4619 4.52344L26.5362 4.1451L26.0497 5.33552L27.3233 5.51378L27.4619 4.52344ZM36.6104 14.0986L35.6147 14.1919L35.6997 15.0986H36.6104V14.0986ZM45.3174 14.0986V15.0986H46.3174V14.0986H45.3174ZM46.3037 3.15039V2.15039H46.3033L46.3037 3.15039ZM53.0303 3.15039L53.0305 2.15039H53.0303V3.15039ZM54.0166 14.0986H53.0166V15.0986H54.0166V14.0986ZM57.8701 14.0986V15.0986H60.3521L58.5634 13.3779L57.8701 14.0986ZM55.7031 9.02246H54.7031V9.02252L55.7031 9.02246ZM56.6895 6.39062V5.39062H56.6892L56.6895 6.39062ZM69.8008 9.02246H68.8008V9.02266L69.8008 9.02246ZM67.5664 14.1621L66.8827 13.4324L65.3908 14.8302L67.4101 15.1498L67.5664 14.1621ZM70.9766 44.7383V45.7383H70.977L70.9766 44.7383ZM66.627 44.7383V43.7383H65.7213L65.6318 44.6396L66.627 44.7383ZM56.7598 53.668L56.7597 54.668H56.7598V53.668ZM46.8936 44.7383L47.8887 44.6396L47.7993 43.7383H46.8936V44.7383ZM33.4961 44.7383V43.7383H32.5904L32.501 44.6396L33.4961 44.7383ZM23.6299 53.668V54.668H23.6299L23.6299 53.668ZM13.7637 44.7373L14.7588 44.6387L14.6695 43.7373H13.7637V44.7373ZM9.41309 44.7373L9.41294 45.7373H9.41309V44.7373ZM8.44824 18.8535L9.44441 18.941L9.47748 18.5643L9.25306 18.26L8.44824 18.8535ZM5.72461 16.8086L5.91897 15.8277L5.91873 15.8276L5.72461 16.8086ZM0.196289 17.6377L1.00592 17.0508L1.00573 17.0505L0.196289 17.6377ZM0.0205078 16.9248L0.999256 17.1299L1.04386 16.917L0.996005 16.7048L0.0205078 16.9248ZM6.1084 14.5332L6.30306 13.5523L6.303 13.5523L6.1084 14.5332ZM9.33398 16.376L8.63741 17.0935L9.48917 17.9204L10.1594 16.9405L9.33398 16.376ZM12.5283 14.2178L12.7416 15.1948L13.4654 15.0367L13.5251 14.2983L12.5283 14.2178ZM21.6738 4.52246L21.8123 5.51283L23.0856 5.33479L22.5996 4.14449L21.6738 4.52246ZM23.6299 35.8096L23.6299 34.8096H23.6299V35.8096ZM15.6865 43.752L14.6865 43.7519V43.752H15.6865ZM23.6299 51.6943V52.6943H23.6299L23.6299 51.6943ZM31.5723 43.752H32.5723V43.7519L31.5723 43.752ZM56.7598 35.8096V34.8096H56.7597L56.7598 35.8096ZM48.8174 43.752L47.8174 43.7519V43.752H48.8174ZM56.7598 51.6943L56.7597 52.6943H56.7598V51.6943ZM64.7031 43.752H65.7031V43.7519L64.7031 43.752ZM23.6592 39.6152V38.6152H23.6592L23.6592 39.6152ZM28.0605 44.0166L29.0605 44.0166V44.0166H28.0605ZM23.6592 48.418L23.6592 49.418H23.6592V48.418ZM19.2578 44.0166H18.2578V44.0166L19.2578 44.0166ZM57.0371 39.6152V38.6152H57.0371L57.0371 39.6152ZM61.4395 44.0166L62.4395 44.0166V44.0166H61.4395ZM57.0371 48.418L57.0371 49.418H57.0371V48.418ZM52.6357 44.0166H51.6357V44.0166L52.6357 44.0166ZM14.3242 17.3457V16.3457H14.3241L14.3242 17.3457ZM11.1807 20.3164L10.1807 20.3163V20.3164H11.1807ZM11.1807 41.8057H10.1807V42.8057H11.1807V41.8057ZM13.9072 41.8057V42.8057H14.7271L14.8878 42.0016L13.9072 41.8057ZM23.6299 33.8359L23.6299 32.8359H23.6299V33.8359ZM33.3525 41.8066L32.3719 42.0025L32.5325 42.8066H33.3525V41.8066ZM47.0371 41.8066V42.8066H47.8571L48.0177 42.0025L47.0371 41.8066ZM56.7598 33.8359V32.8359H56.7597L56.7598 33.8359ZM66.4834 41.8066L65.5028 42.0025L65.6634 42.8066H66.4834V41.8066ZM68.958 41.8066V42.8066H69.958V41.8066H68.958ZM68.958 20.3164H69.958V20.3163L68.958 20.3164ZM49.916 24.2754L48.9261 24.4171L49.0174 25.0548L49.6358 25.2353L49.916 24.2754ZM49.918 31.8184L49.6373 30.8586L49.018 31.0397L48.9278 31.6785L49.918 31.8184ZM44.1348 36.793V37.793H44.1348L44.1348 36.793ZM36.2549 36.793L36.2549 37.793H36.2549V36.793ZM30.4707 31.8184L31.4609 31.6785L31.3707 31.0398L30.7516 30.8586L30.4707 31.8184ZM30.4707 24.2764L30.7516 25.2361L31.3704 25.055L31.4608 24.4166L30.4707 24.2764ZM36.2549 19.3037V18.3037H36.2548L36.2549 19.3037ZM32.5664 31.9893V30.9893H31.2017L31.6129 32.2905L32.5664 31.9893ZM32.6611 32.2891L31.7076 32.5903L31.7134 32.6088L31.72 32.6271L32.6611 32.2891ZM36.2549 34.8193L36.2548 35.8193H36.2549V34.8193ZM44.1348 34.8193V35.8193H44.1348L44.1348 34.8193ZM47.8223 31.9893L48.7883 32.2477L49.1249 30.9893H47.8223V31.9893ZM31.707 26.0791V25.0791H31.707L31.707 26.0791ZM31.707 30.0156L31.7071 29.0156H31.7071L31.707 30.0156ZM48.6816 30.0166L48.6816 31.0166H48.6817L48.6816 30.0166ZM48.6816 26.0791L48.6817 25.0791H48.6816V26.0791ZM36.2559 21.2764V20.2764H36.2556L36.2559 21.2764ZM32.5674 24.1064L31.6014 23.8477L31.2642 25.1064H32.5674V24.1064ZM47.8223 24.1064V25.1064H49.125L48.7883 23.848L47.8223 24.1064ZM15.7178 14.0986L14.7278 13.9574L14.565 15.0986H15.7178V14.0986ZM33.3369 14.0986V15.0986H34.4897L34.3269 13.9574L33.3369 14.0986ZM25.7686 7.47852L25.7686 6.47852H25.7686V7.47852ZM57.6768 9.02344H56.6768V9.02352L57.6768 9.02344ZM62.752 14.0986L62.7519 15.0986H62.752V14.0986ZM67.8281 9.02344L68.8281 9.02352V9.02344H67.8281ZM67.8281 8.36426H68.8281V7.36426H67.8281V8.36426ZM57.6768 8.36426V7.36426H56.6768V8.36426H57.6768ZM47.291 14.0977H46.291V15.0977H47.291V14.0977ZM52.043 14.0977V15.0977H53.043V14.0977H52.043ZM52.043 5.12305H53.043V4.12305H52.043V5.12305ZM47.291 5.12305V4.12305H46.291V5.12305H47.291ZM24.5684 1.97266V0.972656H24.5683L24.5684 1.97266ZM24.5312 4.41699L24.5075 5.41671L24.5194 5.41699H24.5312V4.41699ZM24.6055 4.41699V5.41699H24.6173L24.6292 5.41671L24.6055 4.41699ZM24.5684 0V1C25.5444 1 26.1262 1.45066 26.4373 2.02846C26.7732 2.65246 26.8121 3.47013 26.5362 4.1451L27.4619 4.52344L28.3876 4.90177C28.8826 3.69061 28.8261 2.24656 28.1983 1.08038C27.5456 -0.132004 26.2952 -1 24.5684 -1V0ZM27.4619 4.52344L27.3233 5.51378C31.7446 6.13262 35.1994 9.75944 35.6147 14.1919L36.6104 14.0986L37.606 14.0053C37.1043 8.65125 32.9413 4.28062 27.6005 3.53309L27.4619 4.52344ZM36.6104 14.0986V15.0986H45.3174V14.0986V13.0986H36.6104V14.0986ZM45.3174 14.0986H46.3174V4.13672H45.3174H44.3174V14.0986H45.3174ZM45.3174 4.13672H46.3174C46.3174 4.13658 46.3174 4.13744 46.3171 4.13896C46.3168 4.14041 46.3163 4.14184 46.3158 4.1431C46.3148 4.14547 46.3138 4.14649 46.3135 4.1468C46.3132 4.14709 46.3123 4.14796 46.3101 4.14889C46.3089 4.14939 46.3076 4.14981 46.3062 4.1501C46.3048 4.15039 46.304 4.15039 46.3041 4.15039L46.3037 3.15039L46.3033 2.15039C45.2082 2.15084 44.3174 3.03933 44.3174 4.13672H45.3174ZM46.3037 3.15039V4.15039H53.0303V3.15039V2.15039H46.3037V3.15039ZM53.0303 3.15039L53.0301 4.15039C53.0303 4.15039 53.0296 4.1504 53.0282 4.15011C53.0268 4.14984 53.0255 4.14941 53.0243 4.1489C53.022 4.14793 53.0209 4.14698 53.0205 4.14657C53.0201 4.14616 53.0191 4.14507 53.0181 4.14272C53.0176 4.14147 53.0172 4.14008 53.0169 4.13869C53.0166 4.13725 53.0166 4.13647 53.0166 4.13672H54.0166H55.0166C55.0166 3.03979 54.1268 2.15062 53.0305 2.15039L53.0303 3.15039ZM54.0166 4.13672H53.0166V14.0986H54.0166H55.0166V4.13672H54.0166ZM54.0166 14.0986V15.0986H57.8701V14.0986V13.0986H54.0166V14.0986ZM57.8701 14.0986L58.5634 13.3779C57.416 12.2743 56.7032 10.7301 56.7031 9.0224L55.7031 9.02246L54.7031 9.02252C54.7033 11.2997 55.6564 13.3567 57.1769 14.8193L57.8701 14.0986ZM55.7031 9.02246H56.7031C56.7031 8.75333 56.6851 8.36219 56.6809 8.13209C56.6757 7.84755 56.6837 7.63054 56.7119 7.46693C56.7414 7.2963 56.7757 7.29026 56.7365 7.33202C56.6656 7.40777 56.6004 7.39065 56.6897 7.39062L56.6895 6.39062L56.6892 5.39062C56.1521 5.39076 55.6504 5.56609 55.2771 5.96458C54.9356 6.32908 54.8016 6.77608 54.7411 7.12676C54.6793 7.48446 54.6756 7.85705 54.6812 8.16838C54.6879 8.53415 54.7031 8.74517 54.7031 9.02246H55.7031ZM56.6895 6.39062V7.39062H68.8145V6.39062V5.39062H56.6895V6.39062ZM68.8145 6.39062V7.39062C68.9038 7.39062 68.8385 7.40778 68.7675 7.33194C68.7282 7.29008 68.7625 7.296 68.792 7.46661C68.8202 7.63019 68.8282 7.8472 68.823 8.13181C68.8188 8.36197 68.8008 8.75319 68.8008 9.02246H69.8008H70.8008C70.8008 8.745 70.816 8.53388 70.8227 8.16807C70.8283 7.85669 70.8246 7.48408 70.7628 7.12639C70.7023 6.77572 70.5683 6.3287 70.2267 5.96423C69.8532 5.56577 69.3514 5.39062 68.8145 5.39062V6.39062ZM69.8008 9.02246L68.8008 9.02266C68.8011 10.7587 68.0642 12.3253 66.8827 13.4324L67.5664 14.1621L68.2501 14.8918C69.8154 13.4252 70.8012 11.3382 70.8008 9.02227L69.8008 9.02246ZM67.5664 14.1621L67.4101 15.1498C69.4207 15.4681 70.9629 17.2161 70.9629 19.3135H71.9629H72.9629C72.9629 16.2159 70.6889 13.6439 67.7227 13.1744L67.5664 14.1621ZM71.9629 19.3135H70.9629V43.752H71.9629H72.9629V19.3135H71.9629ZM71.9629 43.752H70.9629C70.9629 43.752 70.9629 43.7511 70.9632 43.7496C70.9635 43.7482 70.964 43.7467 70.9645 43.7455C70.9655 43.7432 70.9664 43.7422 70.9667 43.7419C70.967 43.7416 70.9679 43.7407 70.9701 43.7398C70.9713 43.7393 70.9727 43.7389 70.9741 43.7386C70.9755 43.7383 70.9763 43.7383 70.9761 43.7383L70.9766 44.7383L70.977 45.7383C72.0731 45.7378 72.9629 44.8482 72.9629 43.752H71.9629ZM70.9766 44.7383V43.7383H66.627V44.7383V45.7383H70.9766V44.7383ZM66.627 44.7383L65.6318 44.6396C65.1854 49.1397 61.3751 52.668 56.7598 52.668V53.668V54.668C62.4144 54.668 67.0752 50.349 67.6221 44.837L66.627 44.7383ZM56.7598 53.668L56.7598 52.668C52.1456 52.6678 48.3351 49.1396 47.8887 44.6396L46.8936 44.7383L45.8984 44.837C46.4453 50.3489 51.1062 54.6678 56.7597 54.668L56.7598 53.668ZM46.8936 44.7383V43.7383H33.4961V44.7383V45.7383H46.8936V44.7383ZM33.4961 44.7383L32.501 44.6396C32.0546 49.1397 28.2445 52.6679 23.6299 52.668L23.6299 53.668L23.6299 54.668C29.284 54.6679 33.9444 50.3489 34.4912 44.837L33.4961 44.7383ZM23.6299 53.668V52.668C19.0144 52.668 15.2048 49.1393 14.7588 44.6387L13.7637 44.7373L12.7685 44.8359C13.3148 50.3483 17.9748 54.668 23.6299 54.668V53.668ZM13.7637 44.7373V43.7373H9.41309V44.7373V45.7373H13.7637V44.7373ZM9.41309 44.7373L9.41323 43.7373C9.41303 43.7373 9.41383 43.7373 9.41529 43.7376C9.41669 43.7379 9.41807 43.7383 9.4193 43.7388C9.42161 43.7398 9.42262 43.7407 9.42296 43.7411C9.4233 43.7414 9.42422 43.7424 9.4252 43.7447C9.42572 43.746 9.42616 43.7474 9.42645 43.7488C9.42675 43.7503 9.42676 43.7511 9.42676 43.751H8.42676H7.42676C7.42676 44.847 8.31615 45.7371 9.41294 45.7373L9.41309 44.7373ZM8.42676 43.751H9.42676V19.3135H8.42676H7.42676V43.751H8.42676ZM8.42676 19.3135H9.42676C9.42676 19.1934 9.4331 19.0698 9.44441 18.941L8.44824 18.8535L7.45207 18.7661C7.43677 18.9404 7.42676 19.1236 7.42676 19.3135H8.42676ZM8.44824 18.8535L9.25306 18.26C8.77751 17.6152 7.98732 16.2375 5.91897 15.8277L5.72461 16.8086L5.53025 17.7895C6.71968 18.0252 7.08224 18.6861 7.64343 19.447L8.44824 18.8535ZM5.72461 16.8086L5.91873 15.8276C3.99039 15.446 2.59719 16.1712 1.70628 16.652C1.2014 16.9245 1.00962 17.0227 0.883962 17.0454C0.86547 17.0487 0.918311 17.0373 0.993024 17.0686C1.06178 17.0975 1.06043 17.1259 1.00592 17.0508L0.196289 17.6377L-0.613344 18.2246C-0.406573 18.5099 -0.136801 18.7634 0.218585 18.9126C0.579925 19.0644 0.934892 19.0686 1.23968 19.0135C1.76059 18.9193 2.30001 18.6043 2.65619 18.412C3.4874 17.9634 4.3358 17.5532 5.53049 17.7896L5.72461 16.8086ZM0.196289 17.6377L1.00573 17.0505C0.984572 17.0213 0.991229 17.0207 0.997624 17.0478C1.00064 17.0606 1.00262 17.0757 1.00275 17.0917C1.00288 17.1077 1.00116 17.1208 0.999256 17.1299L0.0205078 16.9248L-0.958241 16.7197C-1.07081 17.257 -0.936008 17.7798 -0.613152 18.2249L0.196289 17.6377ZM0.0205078 16.9248L0.996005 16.7048C1.03085 16.8593 0.898062 16.8383 1.16959 16.6038C1.42205 16.3857 1.85972 16.1445 2.44436 15.9347C3.62697 15.5103 5.04323 15.3414 5.9138 15.5141L6.1084 14.5332L6.303 13.5523C4.96281 13.2864 3.16339 13.5518 1.76888 14.0522C1.06496 14.3048 0.373709 14.6485 -0.137686 15.0902C-0.630003 15.5154 -1.16156 16.2289 -0.954989 17.1448L0.0205078 16.9248ZM6.1084 14.5332L5.91373 15.5141C6.73674 15.6774 7.83946 16.3188 8.63741 17.0935L9.33398 16.376L10.0306 15.6585C9.04725 14.7038 7.61262 13.8122 6.30306 13.5523L6.1084 14.5332ZM9.33398 16.376L10.1594 16.9405C10.7585 16.0646 11.6776 15.4271 12.7416 15.1948L12.5283 14.2178L12.315 13.2408C10.7393 13.5848 9.38785 14.5259 8.50859 15.8114L9.33398 16.376ZM12.5283 14.2178L13.5251 14.2983C13.8897 9.78339 17.3724 6.13362 21.8123 5.51283L21.6738 4.52246L21.5354 3.5321C16.1736 4.2818 11.9721 8.68279 11.5316 14.1373L12.5283 14.2178ZM21.6738 4.52246L22.5996 4.14449C22.3241 3.46961 22.3633 2.65214 22.6994 2.02827C23.0106 1.45054 23.5926 1.00001 24.5684 1L24.5684 0L24.5683 -1C22.8419 -0.999979 21.5916 -0.132298 20.9386 1.07969C20.3106 2.24553 20.2536 3.68927 20.748 4.90043L21.6738 4.52246ZM23.6299 35.8096V34.8096C18.6981 34.8096 14.6866 38.8199 14.6865 43.7519L15.6865 43.752L16.6865 43.752C16.6866 39.9247 19.8023 36.8096 23.6299 36.8096V35.8096ZM15.6865 43.752H14.6865C14.6865 48.6842 18.6986 52.6943 23.6299 52.6943V51.6943V50.6943C19.8027 50.6943 16.6865 47.5792 16.6865 43.752H15.6865ZM23.6299 51.6943L23.6299 52.6943C28.5613 52.6942 32.5723 48.684 32.5723 43.752H31.5723H30.5723C30.5723 47.5793 27.4568 50.6942 23.6299 50.6943L23.6299 51.6943ZM31.5723 43.752L32.5723 43.7519C32.5722 38.82 28.5607 34.8097 23.6299 34.8096L23.6299 35.8096L23.6299 36.8096C27.4563 36.8097 30.5722 39.9247 30.5723 43.752L31.5723 43.752ZM56.7598 35.8096L56.7597 34.8096C51.828 34.8098 47.8175 38.8201 47.8174 43.7519L48.8174 43.752L49.8174 43.752C49.8174 39.9247 52.9325 36.8097 56.7598 36.8096L56.7598 35.8096ZM48.8174 43.752H47.8174C47.8174 48.6839 51.8279 52.6941 56.7597 52.6943L56.7598 51.6943L56.7598 50.6943C52.9324 50.6942 49.8174 47.5792 49.8174 43.752H48.8174ZM56.7598 51.6943V52.6943C61.6916 52.6943 65.7031 48.6841 65.7031 43.752H64.7031H63.7031C63.7031 47.5792 60.5874 50.6943 56.7598 50.6943V51.6943ZM64.7031 43.752L65.7031 43.7519C65.703 38.8199 61.6916 34.8096 56.7598 34.8096V35.8096V36.8096C60.5873 36.8096 63.7031 39.9247 63.7031 43.752L64.7031 43.752ZM23.6592 39.6152V40.6152C25.5379 40.6152 27.0605 42.1379 27.0605 44.0166H28.0605H29.0605C29.0605 41.0334 26.6424 38.6152 23.6592 38.6152V39.6152ZM28.0605 44.0166L27.0605 44.0166C27.0605 45.8952 25.5378 47.418 23.6592 47.418V48.418V49.418C26.6424 49.418 29.0604 46.9997 29.0605 44.0166L28.0605 44.0166ZM23.6592 48.418L23.6592 47.418C21.7806 47.418 20.2579 45.8952 20.2578 44.0166L19.2578 44.0166L18.2578 44.0166C18.2579 46.9997 20.676 49.418 23.6592 49.418L23.6592 48.418ZM19.2578 44.0166H20.2578C20.2578 42.1379 21.7805 40.6152 23.6592 40.6152L23.6592 39.6152L23.6592 38.6152C20.6759 38.6152 18.2578 41.0334 18.2578 44.0166H19.2578ZM57.0371 39.6152V40.6152C58.9161 40.6152 60.4395 42.1382 60.4395 44.0166H61.4395H62.4395C62.4395 41.0331 60.0201 38.6152 57.0371 38.6152V39.6152ZM61.4395 44.0166L60.4395 44.0166C60.4394 45.8949 58.916 47.418 57.0371 47.418V48.418V49.418C60.02 49.418 62.4394 47 62.4395 44.0166L61.4395 44.0166ZM57.0371 48.418L57.0372 47.418C55.1586 47.4179 53.6358 45.8951 53.6357 44.0166L52.6357 44.0166L51.6357 44.0166C51.6358 46.9997 54.054 49.4178 57.0371 49.418L57.0371 48.418ZM52.6357 44.0166H53.6357C53.6357 42.1381 55.1585 40.6153 57.0372 40.6152L57.0371 39.6152L57.0371 38.6152C54.054 38.6154 51.6357 41.0334 51.6357 44.0166H52.6357ZM14.3242 17.3457L14.3241 16.3457C12.0926 16.3459 10.1809 18.0741 10.1807 20.3163L11.1807 20.3164L12.1807 20.3165C12.1808 19.2836 13.0894 18.3458 14.3243 18.3457L14.3242 17.3457ZM11.1807 20.3164H10.1807V41.8057H11.1807H12.1807V20.3164H11.1807ZM11.1807 41.8057V42.8057H13.9072V41.8057V40.8057H11.1807V41.8057ZM13.9072 41.8057L14.8878 42.0016C15.7035 37.9204 19.3153 34.8359 23.6299 34.8359V33.8359V32.8359C18.3413 32.8359 13.9251 36.6138 12.9266 41.6097L13.9072 41.8057ZM23.6299 33.8359L23.6299 34.8359C27.9448 34.836 31.5567 37.9207 32.3719 42.0025L33.3525 41.8066L34.3332 41.6108C33.3352 36.614 28.9188 32.836 23.6299 32.8359L23.6299 33.8359ZM33.3525 41.8066V42.8066H47.0371V41.8066V40.8066H33.3525V41.8066ZM47.0371 41.8066L48.0177 42.0025C48.8331 37.921 52.4454 34.8361 56.7598 34.8359L56.7598 33.8359L56.7597 32.8359C51.4713 32.8361 47.0546 36.6144 46.0565 41.6108L47.0371 41.8066ZM56.7598 33.8359V34.8359C61.0745 34.8359 64.6874 37.9207 65.5028 42.0025L66.4834 41.8066L67.464 41.6108C66.4659 36.6139 62.0483 32.8359 56.7598 32.8359V33.8359ZM66.4834 41.8066V42.8066H68.958V41.8066V40.8066H66.4834V41.8066ZM68.958 41.8066H69.958V20.3164H68.958H67.958V41.8066H68.958ZM68.958 20.3164L69.958 20.3163C69.9577 18.074 68.0457 16.3457 65.8145 16.3457V17.3457V18.3457C67.049 18.3457 67.9579 19.2835 67.958 20.3165L68.958 20.3164ZM65.8145 17.3457V16.3457H14.3242V17.3457V18.3457H65.8145V17.3457ZM44.1348 19.3037V20.3037C45.5606 20.3037 46.6873 20.9064 47.5054 21.7381C48.3418 22.5883 48.8147 23.6387 48.9261 24.4171L49.916 24.2754L50.9059 24.1337C50.73 22.9047 50.0465 21.4693 48.9312 20.3355C47.7976 19.1832 46.1773 18.3037 44.1348 18.3037V19.3037ZM49.916 24.2754L49.6358 25.2353C50.8827 25.5994 51.571 26.7543 51.5712 28.0465C51.5715 29.3389 50.8835 30.4941 49.6373 30.8586L49.918 31.8184L50.1987 32.7782C52.4906 32.1079 53.5716 30.0083 53.5712 28.0462C53.5709 26.084 52.4891 23.9848 50.1963 23.3155L49.916 24.2754ZM49.918 31.8184L48.9278 31.6785C48.8181 32.455 48.3451 33.5056 47.5071 34.3569C46.6875 35.1897 45.5592 35.7929 44.1347 35.793L44.1348 36.793L44.1348 37.793C46.1764 37.7929 47.798 36.9125 48.9325 35.7599C50.0488 34.6258 50.7343 33.1892 50.9081 31.9582L49.918 31.8184ZM44.1348 36.793V35.793H36.2549V36.793V37.793H44.1348V36.793ZM36.2549 36.793L36.2549 35.793C34.8307 35.7929 33.7022 35.1897 32.8821 34.3568C32.0438 33.5054 31.5705 32.4548 31.4609 31.6785L30.4707 31.8184L29.4805 31.9582C29.6544 33.1894 30.3404 34.626 31.4569 35.76C32.5917 36.9125 34.2135 37.7929 36.2549 37.793L36.2549 36.793ZM30.4707 31.8184L30.7516 30.8586C29.506 30.494 28.8183 29.3393 28.8183 28.0473C28.8183 26.7554 29.506 25.6007 30.7516 25.2361L30.4707 24.2764L30.1898 23.3166C27.8988 23.9871 26.8183 26.0858 26.8183 28.0473C26.8183 30.0088 27.8989 32.1075 30.1898 32.7781L30.4707 31.8184ZM30.4707 24.2764L31.4608 24.4166C31.5708 23.6403 32.0443 22.5901 32.8825 21.7392C33.7025 20.9067 34.831 20.3038 36.255 20.3037L36.2549 19.3037L36.2548 18.3037C34.214 18.3039 32.5925 19.1836 31.4577 20.3356C30.3412 21.4691 29.655 22.9051 29.4806 24.1361L30.4707 24.2764ZM36.2549 19.3037V20.3037H44.1348V19.3037V18.3037H36.2549V19.3037ZM32.5664 31.9893L31.6129 32.2905L31.7076 32.5903L32.6611 32.2891L33.6147 31.9878L33.5199 31.688L32.5664 31.9893ZM32.6611 32.2891L31.72 32.6271C32.3869 34.4842 34.1652 35.8192 36.2548 35.8193L36.2549 34.8193L36.2549 33.8193C35.0377 33.8193 33.9938 33.0411 33.6023 31.9511L32.6611 32.2891ZM36.2549 34.8193V35.8193H44.1348V34.8193V33.8193H36.2549V34.8193ZM44.1348 34.8193L44.1348 35.8193C46.3631 35.8193 48.2389 34.3015 48.7883 32.2477L47.8223 31.9893L46.8562 31.7308C46.5346 32.9331 45.4338 33.8193 44.1347 33.8193L44.1348 34.8193ZM47.8223 31.9893V30.9893H32.5664V31.9893V32.9893H47.8223V31.9893ZM31.707 26.0791L31.707 25.0791C30.7835 25.0791 30.0197 25.4404 29.4983 26.0346C28.9938 26.6095 28.7641 27.3456 28.764 28.0472C28.7639 28.7489 28.9935 29.4851 29.498 30.0601C30.0194 30.6544 30.7834 31.0156 31.707 31.0156L31.707 30.0156L31.7071 29.0156C31.3351 29.0156 31.1274 28.8847 31.0013 28.741C30.8581 28.5778 30.764 28.3299 30.764 28.0475C30.764 27.7651 30.8583 27.517 31.0015 27.3538C31.1278 27.2099 31.3355 27.0791 31.7071 27.0791L31.707 26.0791ZM31.707 30.0156L31.707 31.0156L48.6816 31.0166L48.6816 30.0166L48.6817 29.0166L31.7071 29.0156L31.707 30.0156ZM48.6816 30.0166L48.6817 31.0166C49.6052 31.0166 50.3688 30.6551 50.89 30.0606C51.3942 29.4856 51.6236 28.7494 51.6236 28.0479C51.6236 27.3463 51.3942 26.6101 50.89 26.0351C50.3688 25.4406 49.6052 25.0791 48.6817 25.0791L48.6816 26.0791L48.6816 27.0791C49.0528 27.0791 49.2601 27.2098 49.3862 27.3536C49.5294 27.5169 49.6236 27.7651 49.6236 28.0479C49.6236 28.3306 49.5294 28.5788 49.3862 28.7421C49.2601 28.8859 49.0528 29.0166 48.6816 29.0166L48.6816 30.0166ZM48.6816 26.0791V25.0791H31.707V26.0791V27.0791H48.6816V26.0791ZM36.2559 21.2764L36.2556 20.2764C34.0276 20.277 32.1515 21.7945 31.6014 23.8477L32.5674 24.1064L33.5333 24.3652C33.8553 23.1633 34.9568 22.2767 36.2561 22.2764L36.2559 21.2764ZM32.5674 24.1064V25.1064H47.8223V24.1064V23.1064H32.5674V24.1064ZM47.8223 24.1064L48.7883 23.848C48.2388 21.7942 46.3626 20.2764 44.1348 20.2764V21.2764V22.2764C45.4333 22.2764 46.5346 23.1627 46.8562 24.3649L47.8223 24.1064ZM44.1348 21.2764V20.2764H36.2559V21.2764V22.2764H44.1348V21.2764ZM23.2871 7.47852V6.47852C18.9286 6.47852 15.3293 9.74098 14.7278 13.9574L15.7178 14.0986L16.7078 14.2399C17.1731 10.978 19.9549 8.47852 23.2871 8.47852V7.47852ZM15.7178 14.0986V15.0986H33.3369V14.0986V13.0986H15.7178V14.0986ZM33.3369 14.0986L34.3269 13.9574C33.7254 9.74209 30.1271 6.47873 25.7686 6.47852L25.7686 7.47852L25.7685 8.47852C29.1004 8.47868 31.8816 10.9787 32.3469 14.2399L33.3369 14.0986ZM25.7686 7.47852V6.47852H23.2871V7.47852V8.47852H25.7686V7.47852ZM57.6768 9.02344L56.6768 9.02352C56.677 12.3738 59.401 15.0983 62.7519 15.0986L62.752 14.0986L62.752 13.0986C60.5057 13.0984 58.6769 11.2693 58.6768 9.02336L57.6768 9.02344ZM62.752 14.0986V15.0986C66.103 15.0986 68.8279 12.3742 68.8281 9.02352L67.8281 9.02344L66.8281 9.02336C66.8279 11.2693 64.9986 13.0986 62.752 13.0986V14.0986ZM67.8281 9.02344H68.8281V8.36426H67.8281H66.8281V9.02344H67.8281ZM67.8281 8.36426V7.36426H57.6768V8.36426V9.36426H67.8281V8.36426ZM57.6768 8.36426H56.6768V9.02344H57.6768H58.6768V8.36426H57.6768ZM47.291 14.0977V15.0977H52.043V14.0977V13.0977H47.291V14.0977ZM52.043 14.0977H53.043V5.12305H52.043H51.043V14.0977H52.043ZM52.043 5.12305V4.12305H47.291V5.12305V6.12305H52.043V5.12305ZM47.291 5.12305H46.291V14.0977H47.291H48.291V5.12305H47.291ZM24.5684 1.97266L24.5683 0.972656C23.8959 0.972678 23.3195 1.23628 22.9207 1.68501C22.5385 2.11501 22.3671 2.65922 22.3619 3.17063C22.3567 3.68186 22.5167 4.22754 22.8854 4.66431C23.2702 5.12019 23.8366 5.40075 24.5075 5.41671L24.5312 4.41699L24.555 3.41727C24.4883 3.41569 24.4552 3.40268 24.4432 3.39698C24.4309 3.39119 24.4223 3.38447 24.4137 3.37429C24.3926 3.34925 24.3608 3.28619 24.3618 3.19102C24.3628 3.09602 24.3956 3.03616 24.4155 3.01368C24.4236 3.00458 24.4323 2.99783 24.4461 2.99177C24.4599 2.9857 24.4965 2.97266 24.5684 2.97266L24.5684 1.97266ZM24.5312 4.41699V5.41699H24.6055V4.41699V3.41699H24.5312V4.41699ZM24.6055 4.41699L24.6292 5.41671C25.3001 5.40081 25.8666 5.12036 26.2515 4.6645C26.6204 4.22772 26.7805 3.68197 26.7753 3.17064C26.77 2.65914 26.5986 2.11488 26.2163 1.68488C25.8173 1.23617 25.2409 0.972656 24.5684 0.972656V1.97266V2.97266C24.6403 2.97266 24.6771 2.98571 24.691 2.99181C24.7048 2.9979 24.7135 3.00469 24.7216 3.0138C24.7416 3.03629 24.7744 3.09613 24.7754 3.19105C24.7763 3.28615 24.7446 3.34915 24.7234 3.37418C24.7148 3.38436 24.7062 3.39112 24.6939 3.39693C24.6818 3.40266 24.6486 3.41569 24.5818 3.41727L24.6055 4.41699Z" fill="#A31D1D" mask="url(#path-3-inside-1_811_200)"/>
</svg>
