<svg width="212" height="58" viewBox="0 0 212 58" fill="none" xmlns="http://www.w3.org/2000/svg">
<path d="M88.1658 6.58927H93.6273V20.5818C93.6207 21.9106 93.2851 23.08 92.6207 24.0899C91.9629 25.0931 91.0527 25.8771 89.89 26.4419C88.7339 27 87.4018 27.2791 85.8935 27.2791C84.5847 27.2791 83.3887 27.0532 82.3057 26.6014C81.2227 26.1429 80.359 25.4253 79.7145 24.4487C79.07 23.4653 78.7511 22.1897 78.7578 20.6216H84.299C84.3189 21.1332 84.4053 21.5651 84.5581 21.9173C84.7175 22.2694 84.9368 22.5352 85.2158 22.7145C85.5015 22.8873 85.847 22.9737 86.2523 22.9737C86.6643 22.9737 87.0098 22.884 87.2888 22.7046C87.5745 22.5252 87.7904 22.2594 87.9366 21.9073C88.0828 21.5485 88.1592 21.1067 88.1658 20.5818V6.58927ZM96.2534 27V6.58927H110.963V11.0541H101.795V14.5622H110.206V19.0271H101.795V22.5352H110.924V27H96.2534ZM113.712 27V6.58927H119.253V22.5352H127.505V27H113.712ZM135.047 27H129.067L135.804 6.58927H143.378L150.116 27H144.136L139.671 12.2102H139.512L135.047 27ZM133.931 18.9473H145.172V23.0933H133.931V18.9473ZM160.493 6.58927H165.954V20.5818C165.948 21.9106 165.612 23.08 164.948 24.0899C164.29 25.0931 163.38 25.8771 162.217 26.4419C161.061 27 159.729 27.2791 158.221 27.2791C156.912 27.2791 155.716 27.0532 154.633 26.6014C153.55 26.1429 152.686 25.4253 152.042 24.4487C151.397 23.4653 151.078 22.1897 151.085 20.6216H156.626C156.646 21.1332 156.732 21.5651 156.885 21.9173C157.045 22.2694 157.264 22.5352 157.543 22.7145C157.829 22.8873 158.174 22.9737 158.579 22.9737C158.991 22.9737 159.337 22.884 159.616 22.7046C159.902 22.5252 160.117 22.2594 160.264 21.9073C160.41 21.5485 160.486 21.1067 160.493 20.5818V6.58927ZM173.882 27H167.903L174.64 6.58927H182.214L188.951 27H182.972L178.507 12.2102H178.347L173.882 27ZM172.766 18.9473H184.008V23.0933H172.766V18.9473ZM190.917 27V6.58927H196.458V14.5622H203.793V6.58927H209.335V27H203.793V19.0271H196.458V27H190.917Z" fill="white"/>
<path d="M79.3154 50.4141V30.0033H84.8566V38.2553H85.1357L91.2748 30.0033H97.7329L90.8363 39.0925L97.8924 50.4141H91.2748L86.6904 42.76L84.8566 45.1519V50.4141H79.3154ZM111.456 30.0033H116.998V43.079C116.998 44.6337 116.625 45.9791 115.881 47.1153C115.144 48.2448 114.114 49.1185 112.792 49.7364C111.47 50.3476 109.935 50.6533 108.187 50.6533C106.427 50.6533 104.885 50.3476 103.563 49.7364C102.241 49.1185 101.211 48.2448 100.474 47.1153C99.7428 45.9791 99.3773 44.6337 99.3773 43.079V30.0033H104.919V42.6006C104.919 43.2318 105.058 43.7965 105.337 44.2948C105.616 44.7865 106.002 45.1719 106.493 45.4509C106.991 45.73 107.556 45.8695 108.187 45.8695C108.825 45.8695 109.39 45.73 109.882 45.4509C110.373 45.1719 110.759 44.7865 111.038 44.2948C111.317 43.7965 111.456 43.2318 111.456 42.6006V30.0033ZM119.631 50.4141V30.0033H125.172V45.9492H133.424V50.4141H119.631ZM141.205 30.0033V50.4141H135.664V30.0033H141.205ZM161.492 30.0033V50.4141H156.867L149.492 39.6905H149.373V50.4141H143.831V30.0033H148.535L155.791 40.6871H155.95V30.0033H161.492ZM164.113 50.4141V30.0033H178.823V34.4682H169.654V37.9763H178.065V42.4411H169.654V45.9492H178.783V50.4141H164.113ZM181.571 50.4141V30.0033H190.381C191.896 30.0033 193.221 30.2791 194.357 30.8305C195.494 31.382 196.377 32.176 197.008 33.2124C197.64 34.2489 197.955 35.4914 197.955 36.9398C197.955 38.4015 197.63 39.634 196.979 40.6372C196.334 41.6405 195.427 42.3979 194.258 42.9095C193.095 43.4211 191.736 43.6769 190.182 43.6769H184.92V39.3715H189.065C189.717 39.3715 190.271 39.2918 190.73 39.1324C191.195 38.9662 191.55 38.7038 191.796 38.345C192.049 37.9862 192.175 37.5178 192.175 36.9398C192.175 36.3551 192.049 35.8801 191.796 35.5146C191.55 35.1426 191.195 34.8702 190.73 34.6974C190.271 34.518 189.717 34.4283 189.065 34.4283H187.112V50.4141H181.571ZM193.53 41.0459L198.633 50.4141H192.613L187.63 41.0459H193.53Z" fill="white"/>
<mask id="path-3-inside-1_1013_1551" fill="white">
<path d="M24.5675 0C27.2702 0 28.2327 2.63733 27.462 4.52344C32.3427 5.20692 36.151 9.2056 36.6095 14.0986H45.3175V4.13672C45.3175 3.59221 45.7598 3.15039 46.3038 3.15039H53.0294C53.5739 3.15039 54.0157 3.59221 54.0157 4.13672V14.0986H57.8692C56.5354 12.8155 55.7033 11.0149 55.7032 9.02246C55.7032 7.9295 55.4363 6.39062 56.6895 6.39062H68.8136C70.0663 6.39062 69.7999 7.92901 69.7999 9.02246C69.8003 11.0483 68.9397 12.8753 67.5665 14.1621C70.0545 14.5563 71.962 16.7163 71.962 19.3135V43.752C71.962 44.2959 71.5201 44.7381 70.9757 44.7383H66.6261C66.1294 49.7442 61.8946 53.6678 56.7599 53.668C51.6259 53.668 47.3903 49.7443 46.8936 44.7383H33.4952C32.9986 49.7443 28.7635 53.668 23.629 53.668C18.4937 53.668 14.2589 49.7438 13.7628 44.7373H9.4122C8.86786 44.7371 8.42587 44.2949 8.42587 43.751V19.3135C8.42587 19.1585 8.43405 19.0051 8.44735 18.8535C7.92898 18.1506 7.35269 17.1313 5.72372 16.8086C2.60069 16.1906 1.24052 19.0794 0.195399 17.6377C0.0198287 17.3956 -0.0289193 17.1565 0.0196179 16.9248C-0.323749 15.402 3.89677 14.0946 6.10751 14.5332C7.17419 14.7448 8.44334 15.5119 9.33407 16.377C10.0732 15.2961 11.2075 14.506 12.5274 14.2178C12.93 9.23316 16.7722 5.2078 21.6729 4.52246C20.903 2.63648 21.8654 0.000175604 24.5675 0ZM23.629 35.8096C19.2493 35.8096 15.6867 39.3723 15.6866 43.752C15.6866 48.1317 19.2498 51.6943 23.629 51.6943C28.0082 51.6943 31.5714 48.1317 31.5714 43.752C31.5713 39.3723 28.0077 35.8096 23.629 35.8096ZM56.7599 35.8096C52.3802 35.8096 48.8166 39.3723 48.8165 43.752C48.8165 48.1317 52.3801 51.6943 56.7599 51.6943C61.1394 51.6941 64.7022 48.1315 64.7022 43.752C64.7022 39.3724 61.1393 35.8098 56.7599 35.8096ZM23.6583 39.6152C26.0892 39.6152 28.0606 41.5856 28.0606 44.0166C28.0606 46.4475 26.0892 48.418 23.6583 48.418C21.2275 48.4178 19.257 46.4474 19.2569 44.0166C19.2569 41.5857 21.2274 39.6154 23.6583 39.6152ZM57.0362 39.6152C59.4672 39.6152 61.4386 41.5856 61.4386 44.0166C61.4385 46.4475 59.4671 48.418 57.0362 48.418C54.6055 48.4177 52.6349 46.4473 52.6349 44.0166C52.6349 41.5858 54.6055 39.6155 57.0362 39.6152ZM14.3243 17.3457C12.5909 17.3457 11.18 18.6788 11.1798 20.3164V41.8057H13.9063C14.8134 37.2671 18.8274 33.8359 23.629 33.8359C28.431 33.8359 32.445 37.2673 33.3517 41.8066H47.0372C47.944 37.2676 51.9583 33.8359 56.7599 33.8359C61.5612 33.8361 65.5758 37.2674 66.4825 41.8066H68.9581V20.3164C68.9579 18.6788 67.5465 17.3457 65.8136 17.3457H14.3243ZM44.1339 19.3037C47.6022 19.3037 49.6278 22.268 49.9151 24.2754C53.4551 25.3083 53.4554 30.7828 49.9181 31.8184C49.6345 33.8258 47.6002 36.793 44.1339 36.793H36.254C32.7886 36.7927 30.7544 33.8257 30.4708 31.8184C26.9338 30.7834 26.9335 25.31 30.4708 24.2754C30.7558 22.268 32.7905 19.3037 36.255 19.3037H44.1339ZM32.5665 31.9893L32.6602 32.2891C33.1894 33.7626 34.6006 34.8192 36.254 34.8193H44.1339C45.8976 34.8193 47.3858 33.6173 47.8214 31.9893H32.5665ZM31.7071 26.0791C29.1168 26.0791 29.1158 30.0156 31.7071 30.0156L48.6817 30.0166C51.2706 30.0162 51.2706 26.0795 48.6817 26.0791H31.7071ZM36.255 21.2764C34.4914 21.2769 33.0025 22.4789 32.5665 24.1064H47.8214C47.3858 22.4785 45.897 21.2764 44.1339 21.2764H36.255ZM23.2862 7.47852C19.4408 7.47852 16.2503 10.3595 15.7169 14.0986H33.336C32.8026 10.3603 29.6129 7.4786 25.7677 7.47852H23.2862ZM57.6759 9.02344C57.6761 11.8217 59.9532 14.0986 62.752 14.0986C65.5508 14.0985 67.827 11.8216 67.8272 9.02344V8.36426H57.6759V9.02344ZM47.2901 14.0977H52.0421V5.12305H47.2901V14.0977ZM24.5675 1.97266C22.9711 1.97293 22.9591 4.38036 24.5313 4.41699H24.6046C26.177 4.37994 26.1644 1.97266 24.5675 1.97266Z"/>
</mask>
<path d="M24.5675 0C27.2702 0 28.2327 2.63733 27.462 4.52344C32.3427 5.20692 36.151 9.2056 36.6095 14.0986H45.3175V4.13672C45.3175 3.59221 45.7598 3.15039 46.3038 3.15039H53.0294C53.5739 3.15039 54.0157 3.59221 54.0157 4.13672V14.0986H57.8692C56.5354 12.8155 55.7033 11.0149 55.7032 9.02246C55.7032 7.9295 55.4363 6.39062 56.6895 6.39062H68.8136C70.0663 6.39062 69.7999 7.92901 69.7999 9.02246C69.8003 11.0483 68.9397 12.8753 67.5665 14.1621C70.0545 14.5563 71.962 16.7163 71.962 19.3135V43.752C71.962 44.2959 71.5201 44.7381 70.9757 44.7383H66.6261C66.1294 49.7442 61.8946 53.6678 56.7599 53.668C51.6259 53.668 47.3903 49.7443 46.8936 44.7383H33.4952C32.9986 49.7443 28.7635 53.668 23.629 53.668C18.4937 53.668 14.2589 49.7438 13.7628 44.7373H9.4122C8.86786 44.7371 8.42587 44.2949 8.42587 43.751V19.3135C8.42587 19.1585 8.43405 19.0051 8.44735 18.8535C7.92898 18.1506 7.35269 17.1313 5.72372 16.8086C2.60069 16.1906 1.24052 19.0794 0.195399 17.6377C0.0198287 17.3956 -0.0289193 17.1565 0.0196179 16.9248C-0.323749 15.402 3.89677 14.0946 6.10751 14.5332C7.17419 14.7448 8.44334 15.5119 9.33407 16.377C10.0732 15.2961 11.2075 14.506 12.5274 14.2178C12.93 9.23316 16.7722 5.2078 21.6729 4.52246C20.903 2.63648 21.8654 0.000175604 24.5675 0ZM23.629 35.8096C19.2493 35.8096 15.6867 39.3723 15.6866 43.752C15.6866 48.1317 19.2498 51.6943 23.629 51.6943C28.0082 51.6943 31.5714 48.1317 31.5714 43.752C31.5713 39.3723 28.0077 35.8096 23.629 35.8096ZM56.7599 35.8096C52.3802 35.8096 48.8166 39.3723 48.8165 43.752C48.8165 48.1317 52.3801 51.6943 56.7599 51.6943C61.1394 51.6941 64.7022 48.1315 64.7022 43.752C64.7022 39.3724 61.1393 35.8098 56.7599 35.8096ZM23.6583 39.6152C26.0892 39.6152 28.0606 41.5856 28.0606 44.0166C28.0606 46.4475 26.0892 48.418 23.6583 48.418C21.2275 48.4178 19.257 46.4474 19.2569 44.0166C19.2569 41.5857 21.2274 39.6154 23.6583 39.6152ZM57.0362 39.6152C59.4672 39.6152 61.4386 41.5856 61.4386 44.0166C61.4385 46.4475 59.4671 48.418 57.0362 48.418C54.6055 48.4177 52.6349 46.4473 52.6349 44.0166C52.6349 41.5858 54.6055 39.6155 57.0362 39.6152ZM14.3243 17.3457C12.5909 17.3457 11.18 18.6788 11.1798 20.3164V41.8057H13.9063C14.8134 37.2671 18.8274 33.8359 23.629 33.8359C28.431 33.8359 32.445 37.2673 33.3517 41.8066H47.0372C47.944 37.2676 51.9583 33.8359 56.7599 33.8359C61.5612 33.8361 65.5758 37.2674 66.4825 41.8066H68.9581V20.3164C68.9579 18.6788 67.5465 17.3457 65.8136 17.3457H14.3243ZM44.1339 19.3037C47.6022 19.3037 49.6278 22.268 49.9151 24.2754C53.4551 25.3083 53.4554 30.7828 49.9181 31.8184C49.6345 33.8258 47.6002 36.793 44.1339 36.793H36.254C32.7886 36.7927 30.7544 33.8257 30.4708 31.8184C26.9338 30.7834 26.9335 25.31 30.4708 24.2754C30.7558 22.268 32.7905 19.3037 36.255 19.3037H44.1339ZM32.5665 31.9893L32.6602 32.2891C33.1894 33.7626 34.6006 34.8192 36.254 34.8193H44.1339C45.8976 34.8193 47.3858 33.6173 47.8214 31.9893H32.5665ZM31.7071 26.0791C29.1168 26.0791 29.1158 30.0156 31.7071 30.0156L48.6817 30.0166C51.2706 30.0162 51.2706 26.0795 48.6817 26.0791H31.7071ZM36.255 21.2764C34.4914 21.2769 33.0025 22.4789 32.5665 24.1064H47.8214C47.3858 22.4785 45.897 21.2764 44.1339 21.2764H36.255ZM23.2862 7.47852C19.4408 7.47852 16.2503 10.3595 15.7169 14.0986H33.336C32.8026 10.3603 29.6129 7.4786 25.7677 7.47852H23.2862ZM57.6759 9.02344C57.6761 11.8217 59.9532 14.0986 62.752 14.0986C65.5508 14.0985 67.827 11.8216 67.8272 9.02344V8.36426H57.6759V9.02344ZM47.2901 14.0977H52.0421V5.12305H47.2901V14.0977ZM24.5675 1.97266C22.9711 1.97293 22.9591 4.38036 24.5313 4.41699H24.6046C26.177 4.37994 26.1644 1.97266 24.5675 1.97266Z" fill="white"/>
<path d="M24.5675 0V-1H24.5674L24.5675 0ZM27.462 4.52344L26.5363 4.14518L26.0499 5.33545L27.3233 5.51377L27.462 4.52344ZM36.6095 14.0986L35.6138 14.1919L35.6988 15.0986H36.6095V14.0986ZM45.3175 14.0986V15.0986H46.3175V14.0986H45.3175ZM54.0157 14.0986H53.0157V15.0986H54.0157V14.0986ZM57.8692 14.0986V15.0986H60.3512L58.5625 13.378L57.8692 14.0986ZM55.7032 9.02246H54.7032V9.02252L55.7032 9.02246ZM69.7999 9.02246H68.7999V9.02266L69.7999 9.02246ZM67.5665 14.1621L66.8827 13.4324L65.3914 14.83L67.41 15.1498L67.5665 14.1621ZM70.9757 44.7383V45.7383H70.9759L70.9757 44.7383ZM66.6261 44.7383V43.7383H65.7204L65.631 44.6396L66.6261 44.7383ZM56.7599 53.668V54.668H56.7599L56.7599 53.668ZM46.8936 44.7383L47.8888 44.6395L47.7993 43.7383H46.8936V44.7383ZM33.4952 44.7383V43.7383H32.5895L32.5001 44.6396L33.4952 44.7383ZM23.629 53.668V54.668V53.668ZM13.7628 44.7373L14.7579 44.6387L14.6686 43.7373H13.7628V44.7373ZM9.4122 44.7373L9.41183 45.7373H9.4122V44.7373ZM8.44735 18.8535L9.44352 18.941L9.47659 18.5643L9.25218 18.26L8.44735 18.8535ZM5.72372 16.8086L5.91803 15.8277L5.91784 15.8276L5.72372 16.8086ZM0.195399 17.6377L1.00503 17.0508L1.0049 17.0506L0.195399 17.6377ZM0.0196179 16.9248L0.998377 17.1298L1.04296 16.917L0.995128 16.7048L0.0196179 16.9248ZM6.10751 14.5332L6.30211 13.5523L6.30211 13.5523L6.10751 14.5332ZM9.33407 16.377L8.63737 17.0943L9.4892 17.9216L10.1595 16.9414L9.33407 16.377ZM12.5274 14.2178L12.7408 15.1947L13.4645 15.0367L13.5242 14.2983L12.5274 14.2178ZM21.6729 4.52246L21.8114 5.51282L23.0847 5.33477L22.5988 4.14452L21.6729 4.52246ZM23.629 35.8096V34.8096H23.629L23.629 35.8096ZM15.6866 43.752L14.6866 43.7519V43.752H15.6866ZM23.629 51.6943L23.629 52.6943H23.629V51.6943ZM31.5714 43.752H32.5714V43.7519L31.5714 43.752ZM56.7599 35.8096L56.7599 34.8096H56.7599V35.8096ZM48.8165 43.752L47.8165 43.7519V43.752H48.8165ZM56.7599 51.6943V52.6943H56.7599L56.7599 51.6943ZM64.7022 43.752H65.7022V43.7519L64.7022 43.752ZM23.6583 39.6152V38.6152H23.6582L23.6583 39.6152ZM28.0606 44.0166L29.0606 44.0166V44.0166H28.0606ZM23.6583 48.418L23.6582 49.418H23.6583V48.418ZM19.2569 44.0166H18.2569V44.0166L19.2569 44.0166ZM57.0362 39.6152V38.6152H57.0361L57.0362 39.6152ZM61.4386 44.0166L62.4386 44.0166V44.0166H61.4386ZM57.0362 48.418L57.0361 49.418H57.0362V48.418ZM52.6349 44.0166H51.6349V44.0166L52.6349 44.0166ZM11.1798 20.3164L10.1798 20.3163V20.3164H11.1798ZM11.1798 41.8057H10.1798V42.8057H11.1798V41.8057ZM13.9063 41.8057V42.8057H14.7263L14.8869 42.0016L13.9063 41.8057ZM23.629 33.8359V32.8359V33.8359ZM33.3517 41.8066L32.371 42.0025L32.5316 42.8066H33.3517V41.8066ZM47.0372 41.8066V42.8066H47.8572L48.0178 42.0025L47.0372 41.8066ZM56.7599 33.8359L56.7599 32.8359H56.7599V33.8359ZM66.4825 41.8066L65.5019 42.0025L65.6625 42.8066H66.4825V41.8066ZM68.9581 41.8066V42.8066H69.9581V41.8066H68.9581ZM68.9581 20.3164H69.9581V20.3163L68.9581 20.3164ZM49.9151 24.2754L48.9252 24.4171L49.0165 25.0549L49.635 25.2354L49.9151 24.2754ZM49.9181 31.8184L49.6371 30.8586L49.0181 31.0399L48.9279 31.6785L49.9181 31.8184ZM36.254 36.793L36.2539 37.793H36.254V36.793ZM30.4708 31.8184L31.461 31.6785L31.3707 31.0398L30.7516 30.8586L30.4708 31.8184ZM30.4708 24.2754L30.7515 25.2352L31.3703 25.0542L31.4609 24.4159L30.4708 24.2754ZM32.5665 31.9893V30.9893H31.206L31.6121 32.2877L32.5665 31.9893ZM32.6602 32.2891L31.7058 32.5875L31.712 32.6074L31.7191 32.627L32.6602 32.2891ZM36.254 34.8193L36.2539 35.8193H36.254V34.8193ZM47.8214 31.9893L48.7874 32.2477L49.1241 30.9893H47.8214V31.9893ZM31.7071 30.0156L31.7072 29.0156H31.7071V30.0156ZM48.6817 30.0166L48.6817 31.0166H48.6819L48.6817 30.0166ZM48.6817 26.0791L48.6819 25.0791H48.6817V26.0791ZM36.255 21.2764V20.2764H36.2546L36.255 21.2764ZM32.5665 24.1064L31.6006 23.8477L31.2633 25.1064H32.5665V24.1064ZM47.8214 24.1064V25.1064H49.1241L48.7874 23.848L47.8214 24.1064ZM15.7169 14.0986L14.7269 13.9574L14.5641 15.0986H15.7169V14.0986ZM33.336 14.0986V15.0986H34.4888L34.326 13.9574L33.336 14.0986ZM25.7677 7.47852L25.7677 6.47852H25.7677V7.47852ZM57.6759 9.02344H56.6759V9.02352L57.6759 9.02344ZM62.752 14.0986V15.0986H62.7521L62.752 14.0986ZM67.8272 9.02344L68.8272 9.02352V9.02344H67.8272ZM67.8272 8.36426H68.8272V7.36426H67.8272V8.36426ZM57.6759 8.36426V7.36426H56.6759V8.36426H57.6759ZM47.2901 14.0977H46.2901V15.0977H47.2901V14.0977ZM52.0421 14.0977V15.0977H53.0421V14.0977H52.0421ZM52.0421 5.12305H53.0421V4.12305H52.0421V5.12305ZM47.2901 5.12305V4.12305H46.2901V5.12305H47.2901ZM24.5675 1.97266V0.972656H24.5673L24.5675 1.97266ZM24.5313 4.41699L24.508 5.41672L24.5197 5.41699H24.5313V4.41699ZM24.6046 4.41699V5.41699H24.6164L24.6281 5.41671L24.6046 4.41699ZM24.5675 0V1C25.5435 1 26.1256 1.45069 26.4369 2.02864C26.773 2.65273 26.812 3.47037 26.5363 4.14518L27.462 4.52344L28.3877 4.90169C28.8827 3.69039 28.8258 2.24631 28.1977 1.08021C27.5447 -0.13203 26.2942 -1 24.5675 -1V0ZM27.462 4.52344L27.3233 5.51377C31.7442 6.13287 35.1985 9.75963 35.6138 14.1919L36.6095 14.0986L37.6051 14.0053C37.1035 8.65157 32.9411 4.28097 27.6007 3.5331L27.462 4.52344ZM36.6095 14.0986V15.0986H45.3175V14.0986V13.0986H36.6095V14.0986ZM45.3175 14.0986H46.3175V4.13672H45.3175H44.3175V14.0986H45.3175ZM45.3175 4.13672H46.3175C46.3175 4.13652 46.3175 4.13732 46.3172 4.13879C46.3169 4.1402 46.3164 4.1416 46.3159 4.14285C46.3149 4.14519 46.314 4.14624 46.3136 4.14659C46.3133 4.14695 46.3122 4.14788 46.3099 4.14885C46.3087 4.14936 46.3073 4.1498 46.3059 4.15009C46.3045 4.15039 46.3036 4.15039 46.3038 4.15039V3.15039V2.15039C45.2078 2.15039 44.3175 3.0396 44.3175 4.13672H45.3175ZM46.3038 3.15039V4.15039H53.0294V3.15039V2.15039H46.3038V3.15039ZM53.0294 3.15039V4.15039C53.0297 4.15039 53.0289 4.1504 53.0275 4.15011C53.0261 4.14983 53.0247 4.1494 53.0235 4.14888C53.0212 4.14789 53.0201 4.14691 53.0196 4.14647C53.0192 4.14603 53.0182 4.14493 53.0172 4.14259C53.0167 4.14135 53.0163 4.13998 53.016 4.13861C53.0157 4.13719 53.0157 4.13644 53.0157 4.13672H54.0157H55.0157C55.0157 3.03993 54.1262 2.15039 53.0294 2.15039V3.15039ZM54.0157 4.13672H53.0157V14.0986H54.0157H55.0157V4.13672H54.0157ZM54.0157 14.0986V15.0986H57.8692V14.0986V13.0986H54.0157V14.0986ZM57.8692 14.0986L58.5625 13.378C57.4154 12.2745 56.7033 10.7304 56.7032 9.0224L55.7032 9.02246L54.7032 9.02252C54.7033 11.2993 55.6554 13.3565 57.1759 14.8193L57.8692 14.0986ZM55.7032 9.02246H56.7032C56.7032 8.75303 56.6851 8.36224 56.6809 8.13188C56.6757 7.84728 56.6836 7.63026 56.7119 7.46666C56.7413 7.29603 56.7756 7.29011 56.7364 7.33198C56.6653 7.40782 56.6 7.39062 56.6895 7.39062V6.39062V5.39062C56.1525 5.39062 55.6506 5.56579 55.2771 5.96433C54.9354 6.32888 54.8014 6.776 54.741 7.1267C54.6793 7.48444 54.6756 7.85707 54.6813 8.16841C54.6879 8.53398 54.7032 8.74541 54.7032 9.02246H55.7032ZM56.6895 6.39062V7.39062H68.8136V6.39062V5.39062H56.6895V6.39062ZM68.8136 6.39062V7.39062C68.903 7.39062 68.8377 7.40778 68.7666 7.33194C68.7273 7.29008 68.7616 7.296 68.7911 7.46661C68.8193 7.63019 68.8273 7.8472 68.8221 8.13181C68.8179 8.36198 68.7999 8.75319 68.7999 9.02246H69.7999H70.7999C70.7999 8.745 70.8151 8.53388 70.8218 8.16807C70.8274 7.85669 70.8237 7.48408 70.7619 7.12639C70.7014 6.77572 70.5674 6.3287 70.2258 5.96423C69.8523 5.56577 69.3506 5.39062 68.8136 5.39062V6.39062ZM69.7999 9.02246L68.7999 9.02266C68.8002 10.7588 68.0639 12.3255 66.8827 13.4324L67.5665 14.1621L68.2503 14.8918C69.8155 13.425 70.8003 11.3378 70.7999 9.02227L69.7999 9.02246ZM67.5665 14.1621L67.41 15.1498C69.4202 15.4683 70.962 17.2162 70.962 19.3135H71.962H72.962C72.962 16.2163 70.6888 13.6443 67.723 13.1744L67.5665 14.1621ZM71.962 19.3135H70.962V43.752H71.962H72.962V19.3135H71.962ZM71.962 43.752H70.962C70.962 43.7521 70.962 43.7512 70.9623 43.7497C70.9626 43.7483 70.9631 43.7469 70.9636 43.7456C70.9646 43.7433 70.9655 43.7423 70.9658 43.742C70.9661 43.7417 70.9671 43.7408 70.9694 43.7398C70.9706 43.7393 70.972 43.7389 70.9734 43.7386C70.9748 43.7383 70.9756 43.7383 70.9754 43.7383L70.9757 44.7383L70.9759 45.7383C72.0725 45.738 72.962 44.8481 72.962 43.752H71.962ZM70.9757 44.7383V43.7383H66.6261V44.7383V45.7383H70.9757V44.7383ZM66.6261 44.7383L65.631 44.6396C65.1845 49.1396 61.3749 52.6678 56.7598 52.668L56.7599 53.668L56.7599 54.668C62.4144 54.6677 67.0744 50.3488 67.6212 44.837L66.6261 44.7383ZM56.7599 53.668V52.668C52.1456 52.668 48.3353 49.1397 47.8888 44.6395L46.8936 44.7383L45.8985 44.837C46.4454 50.3489 51.1061 54.668 56.7599 54.668V53.668ZM46.8936 44.7383V43.7383H33.4952V44.7383V45.7383H46.8936V44.7383ZM33.4952 44.7383L32.5001 44.6396C32.0536 49.1398 28.2437 52.668 23.629 52.668V53.668V54.668C29.2832 54.668 33.9435 50.3489 34.4903 44.837L33.4952 44.7383ZM23.629 53.668L23.629 52.668C19.0135 52.668 15.2039 49.1393 14.7579 44.6387L13.7628 44.7373L12.7677 44.8359C13.3139 50.3483 17.9739 54.668 23.629 54.668V53.668ZM13.7628 44.7373V43.7373H9.4122V44.7373V45.7373H13.7628V44.7373ZM9.4122 44.7373L9.41256 43.7373C9.41236 43.7373 9.41316 43.7373 9.4146 43.7376C9.41598 43.7379 9.41734 43.7383 9.41854 43.7388C9.42079 43.7398 9.42177 43.7407 9.42207 43.741C9.42238 43.7413 9.4233 43.7423 9.42429 43.7446C9.42481 43.7458 9.42526 43.7472 9.42555 43.7487C9.42586 43.7502 9.42587 43.7511 9.42587 43.751H8.42587H7.42587C7.42587 44.8472 8.31553 45.7369 9.41183 45.7373L9.4122 44.7373ZM8.42587 43.751H9.42587V19.3135H8.42587H7.42587V43.751H8.42587ZM8.42587 19.3135H9.42587C9.42587 19.1934 9.43221 19.0698 9.44352 18.941L8.44735 18.8535L7.45118 18.7661C7.43588 18.9404 7.42587 19.1236 7.42587 19.3135H8.42587ZM8.44735 18.8535L9.25218 18.26C8.77665 17.6152 7.98652 16.2374 5.91803 15.8277L5.72372 16.8086L5.52941 17.7895C6.71886 18.0252 7.08131 18.686 7.64253 19.447L8.44735 18.8535ZM5.72372 16.8086L5.91784 15.8276C3.9895 15.446 2.5963 16.1712 1.70539 16.652C1.20051 16.9245 1.00873 17.0227 0.883072 17.0454C0.86458 17.0487 0.917421 17.0373 0.992134 17.0686C1.06089 17.0975 1.05954 17.1259 1.00503 17.0508L0.195399 17.6377L-0.614234 18.2246C-0.407463 18.5099 -0.137691 18.7634 0.217696 18.9126C0.579035 19.0644 0.934003 19.0686 1.23879 19.0135C1.7597 18.9193 2.29912 18.6043 2.6553 18.412C3.48651 17.9634 4.33491 17.5532 5.5296 17.7896L5.72372 16.8086ZM0.195399 17.6377L1.0049 17.0506C0.983779 17.0215 0.990393 17.0208 0.996764 17.0478C0.999764 17.0605 1.00175 17.0756 1.00188 17.0916C1.00202 17.1075 1.0003 17.1207 0.998377 17.1298L0.0196179 16.9248L-0.959141 16.7198C-1.07167 17.257 -0.93679 17.7799 -0.614098 18.2248L0.195399 17.6377ZM0.0196179 16.9248L0.995128 16.7048C1.02996 16.8593 0.89719 16.8383 1.16874 16.6038C1.42121 16.3858 1.85888 16.1445 2.44352 15.9347C3.62612 15.5104 5.04236 15.3414 5.91291 15.5141L6.10751 14.5332L6.30211 13.5523C4.96193 13.2864 3.16253 13.5518 1.76803 14.0522C1.06411 14.3048 0.372873 14.6485 -0.138524 15.0902C-0.630835 15.5154 -1.1624 16.2289 -0.955892 17.1448L0.0196179 16.9248ZM6.10751 14.5332L5.9129 15.5141C6.73616 15.6774 7.83929 16.3192 8.63737 17.0943L9.33407 16.377L10.0308 15.6596C9.04738 14.7045 7.61222 13.8122 6.30211 13.5523L6.10751 14.5332ZM9.33407 16.377L10.1595 16.9414C10.7589 16.0649 11.6773 15.427 12.7408 15.1947L12.5274 14.2178L12.3141 13.2408C10.7378 13.585 9.38749 14.5273 8.50863 15.8125L9.33407 16.377ZM12.5274 14.2178L13.5242 14.2983C13.8888 9.78348 17.3716 6.13371 21.8114 5.51282L21.6729 4.52246L21.5344 3.5321C16.1728 4.28189 11.9712 8.68284 11.5307 14.1373L12.5274 14.2178ZM21.6729 4.52246L22.5988 4.14452C22.3233 3.46969 22.3625 2.65225 22.6986 2.02836C23.0099 1.4506 23.5918 1.00006 24.5675 1L24.5675 0L24.5674 -1C22.8411 -0.999888 21.5908 -0.132181 20.9379 1.07974C20.3098 2.24555 20.2527 3.68925 20.7471 4.9004L21.6729 4.52246ZM23.629 35.8096L23.629 34.8096C18.697 34.8096 14.6867 38.82 14.6866 43.7519L15.6866 43.752L16.6866 43.752C16.6867 39.9246 19.8016 36.8096 23.629 36.8096L23.629 35.8096ZM15.6866 43.752H14.6866C14.6866 48.684 18.6975 52.6943 23.629 52.6943L23.629 51.6943L23.629 50.6943C19.802 50.6943 16.6866 47.5794 16.6866 43.752H15.6866ZM23.629 51.6943V52.6943C28.5605 52.6943 32.5714 48.684 32.5714 43.752H31.5714H30.5714C30.5714 47.5794 27.456 50.6943 23.629 50.6943V51.6943ZM31.5714 43.752L32.5714 43.7519C32.5713 38.8199 28.5599 34.8096 23.629 34.8096V35.8096V36.8096C27.4555 36.8096 30.5713 39.9246 30.5714 43.752L31.5714 43.752ZM56.7599 35.8096V34.8096C51.828 34.8096 47.8166 38.8199 47.8165 43.7519L48.8165 43.752L49.8165 43.752C49.8166 39.9247 52.9323 36.8096 56.7599 36.8096V35.8096ZM48.8165 43.752H47.8165C47.8165 48.6841 51.828 52.6943 56.7599 52.6943V51.6943V50.6943C52.9322 50.6943 49.8165 47.5792 49.8165 43.752H48.8165ZM56.7599 51.6943L56.7599 52.6943C61.6916 52.6941 65.7022 48.6839 65.7022 43.752H64.7022H63.7022C63.7022 47.5792 60.5871 50.6941 56.7598 50.6943L56.7599 51.6943ZM64.7022 43.752L65.7022 43.7519C65.7022 38.8201 61.6916 34.8098 56.7599 34.8096L56.7599 35.8096L56.7598 36.8096C60.5871 36.8098 63.7022 39.9247 63.7022 43.752L64.7022 43.752ZM23.6583 39.6152V40.6152C25.5373 40.6152 27.0606 42.1382 27.0606 44.0166H28.0606H29.0606C29.0606 41.0331 26.6412 38.6152 23.6583 38.6152V39.6152ZM28.0606 44.0166L27.0606 44.0166C27.0606 45.8949 25.5372 47.418 23.6583 47.418V48.418V49.418C26.6412 49.418 29.0605 47 29.0606 44.0166L28.0606 44.0166ZM23.6583 48.418L23.6583 47.418C21.7798 47.4179 20.257 45.8951 20.2569 44.0166L19.2569 44.0166L18.2569 44.0166C18.257 46.9997 20.6752 49.4178 23.6582 49.418L23.6583 48.418ZM19.2569 44.0166H20.2569C20.2569 42.1381 21.7797 40.6153 23.6583 40.6152L23.6583 39.6152L23.6582 38.6152C20.6752 38.6154 18.2569 41.0334 18.2569 44.0166H19.2569ZM57.0362 39.6152V40.6152C58.9152 40.6152 60.4386 42.1382 60.4386 44.0166H61.4386H62.4386C62.4386 41.0331 60.0192 38.6152 57.0362 38.6152V39.6152ZM61.4386 44.0166L60.4386 44.0166C60.4385 45.8949 58.9151 47.418 57.0362 47.418V48.418V49.418C60.0192 49.418 62.4385 47 62.4386 44.0166L61.4386 44.0166ZM57.0362 48.418L57.0363 47.418C55.1578 47.4178 53.6349 45.895 53.6349 44.0166L52.6349 44.0166L51.6349 44.0166C51.635 46.9997 54.0533 49.4177 57.0361 49.418L57.0362 48.418ZM52.6349 44.0166H53.6349C53.6349 42.1382 55.1577 40.6154 57.0363 40.6152L57.0362 39.6152L57.0361 38.6152C54.0533 38.6155 51.6349 41.0334 51.6349 44.0166H52.6349ZM14.3243 17.3457V16.3457C12.0929 16.3457 10.1801 18.0737 10.1798 20.3163L11.1798 20.3164L12.1798 20.3165C12.1799 19.2838 13.089 18.3457 14.3243 18.3457V17.3457ZM11.1798 20.3164H10.1798V41.8057H11.1798H12.1798V20.3164H11.1798ZM11.1798 41.8057V42.8057H13.9063V41.8057V40.8057H11.1798V41.8057ZM13.9063 41.8057L14.8869 42.0016C15.7026 37.9204 19.3144 34.8359 23.629 34.8359L23.629 33.8359V32.8359C18.3404 32.8359 13.9241 36.6138 12.9257 41.6097L13.9063 41.8057ZM23.629 33.8359V34.8359C27.944 34.8359 31.5558 37.9206 32.371 42.0025L33.3517 41.8066L34.3323 41.6108C33.3343 36.614 28.918 32.8359 23.629 32.8359V33.8359ZM33.3517 41.8066V42.8066H47.0372V41.8066V40.8066H33.3517V41.8066ZM47.0372 41.8066L48.0178 42.0025C48.8332 37.9209 52.4454 34.8359 56.7599 34.8359V33.8359V32.8359C51.4713 32.8359 47.0547 36.6144 46.0566 41.6107L47.0372 41.8066ZM56.7599 33.8359L56.7598 34.8359C61.0743 34.8361 64.6865 37.9208 65.5019 42.0025L66.4825 41.8066L67.4631 41.6107C66.465 36.6141 62.0482 32.8362 56.7599 32.8359L56.7599 33.8359ZM66.4825 41.8066V42.8066H68.9581V41.8066V40.8066H66.4825V41.8066ZM68.9581 41.8066H69.9581V20.3164H68.9581H67.9581V41.8066H68.9581ZM68.9581 20.3164L69.9581 20.3163C69.9578 18.0736 68.0444 16.3457 65.8136 16.3457V17.3457V18.3457C67.0485 18.3457 67.958 19.2839 67.9581 20.3165L68.9581 20.3164ZM65.8136 17.3457V16.3457H14.3243V17.3457V18.3457H65.8136V17.3457ZM44.1339 19.3037V20.3037C45.5597 20.3037 46.6864 20.9064 47.5045 21.7381C48.3409 22.5883 48.8138 23.6387 48.9252 24.4171L49.9151 24.2754L50.905 24.1337C50.7291 22.9047 50.0456 21.4693 48.9303 20.3355C47.7967 19.1832 46.1764 18.3037 44.1339 18.3037V19.3037ZM49.9151 24.2754L49.635 25.2354C50.882 25.5992 51.5703 26.7539 51.5706 28.0461C51.5709 29.3385 50.883 30.4939 49.6371 30.8586L49.9181 31.8184L50.199 32.7781C52.4905 32.1073 53.5711 30.0076 53.5706 28.0456C53.5701 26.0835 52.4882 23.9845 50.1952 23.3154L49.9151 24.2754ZM49.9181 31.8184L48.9279 31.6785C48.8182 32.4549 48.3451 33.5055 47.5069 34.3569C46.687 35.1897 45.5585 35.793 44.1339 35.793V36.793V37.793C46.1756 37.793 47.7974 36.9126 48.9321 35.76C50.0486 34.6259 50.7344 33.1893 50.9082 31.9582L49.9181 31.8184ZM44.1339 36.793V35.793H36.254V36.793V37.793H44.1339V36.793ZM36.254 36.793L36.2541 35.793C34.83 35.7929 33.7017 35.1897 32.8819 34.3568C32.0438 33.5054 31.5706 32.4548 31.461 31.6785L30.4708 31.8184L29.4806 31.9582C29.6545 33.1892 30.3403 34.6258 31.4566 35.7599C32.5911 36.9124 34.2126 37.7928 36.2539 37.793L36.254 36.793ZM30.4708 31.8184L30.7516 30.8586C29.5059 30.4941 28.818 29.3391 28.8179 28.0467C28.8179 26.7544 29.5058 25.5996 30.7515 25.2352L30.4708 24.2754L30.1901 23.3156C27.8986 23.9859 26.8179 26.085 26.8179 28.0468C26.818 30.0085 27.8987 32.1077 30.1899 32.7781L30.4708 31.8184ZM30.4708 24.2754L31.4609 24.4159C31.5711 23.6394 32.0447 22.5893 32.8829 21.7386C33.7029 20.9064 34.8311 20.3037 36.255 20.3037V19.3037V18.3037C34.2143 18.3037 32.593 19.1832 31.4582 20.3349C30.3417 21.4682 29.6554 22.904 29.4807 24.1348L30.4708 24.2754ZM36.255 19.3037V20.3037H44.1339V19.3037V18.3037H36.255V19.3037ZM32.5665 31.9893L31.6121 32.2877L31.7058 32.5875L32.6602 32.2891L33.6147 31.9906L33.5209 31.6908L32.5665 31.9893ZM32.6602 32.2891L31.7191 32.627C32.386 34.4842 34.1644 35.8191 36.2539 35.8193L36.254 34.8193L36.2541 33.8193C35.0368 33.8192 33.9928 33.041 33.6014 31.9511L32.6602 32.2891ZM36.254 34.8193V35.8193H44.1339V34.8193V33.8193H36.254V34.8193ZM44.1339 34.8193V35.8193C46.3623 35.8193 48.238 34.3015 48.7874 32.2477L47.8214 31.9893L46.8553 31.7308C46.5337 32.9331 45.4329 33.8193 44.1339 33.8193V34.8193ZM47.8214 31.9893V30.9893H32.5665V31.9893V32.9893H47.8214V31.9893ZM31.7071 26.0791V25.0791C30.7836 25.0791 30.0198 25.4404 29.4983 26.0346C28.9938 26.6094 28.7641 27.3455 28.764 28.0472C28.7639 28.7489 28.9935 29.4851 29.498 30.0601C30.0195 30.6544 30.7835 31.0156 31.7071 31.0156V30.0156V29.0156C31.3351 29.0156 31.1274 28.8848 31.0013 28.741C30.8581 28.5778 30.7639 28.3299 30.764 28.0475C30.764 27.765 30.8583 27.517 31.0015 27.3538C31.1278 27.2099 31.3355 27.0791 31.7071 27.0791V26.0791ZM31.7071 30.0156L31.7071 31.0156L48.6817 31.0166L48.6817 30.0166L48.6818 29.0166L31.7072 29.0156L31.7071 30.0156ZM48.6817 30.0166L48.6819 31.0166C49.6053 31.0165 50.3688 30.6549 50.8899 30.0605C51.394 29.4855 51.6234 28.7494 51.6234 28.0479C51.6234 27.3463 51.394 26.6102 50.8899 26.0352C50.3688 25.4408 49.6053 25.0792 48.6819 25.0791L48.6817 26.0791L48.6816 27.0791C49.0526 27.0792 49.2599 27.2098 49.386 27.3537C49.5291 27.5169 49.6234 27.7651 49.6234 28.0479C49.6234 28.3306 49.5291 28.5788 49.386 28.742C49.2599 28.8859 49.0526 29.0165 48.6816 29.0166L48.6817 30.0166ZM48.6817 26.0791V25.0791H31.7071V26.0791V27.0791H48.6817V26.0791ZM36.255 21.2764L36.2546 20.2764C34.0268 20.2771 32.1506 21.7945 31.6006 23.8477L32.5665 24.1064L33.5324 24.3652C33.8544 23.1634 34.9559 22.2768 36.2553 22.2764L36.255 21.2764ZM32.5665 24.1064V25.1064H47.8214V24.1064V23.1064H32.5665V24.1064ZM47.8214 24.1064L48.7874 23.848C48.2379 21.7942 46.3617 20.2764 44.1339 20.2764V21.2764V22.2764C45.4324 22.2764 46.5337 23.1627 46.8554 24.3649L47.8214 24.1064ZM44.1339 21.2764V20.2764H36.255V21.2764V22.2764H44.1339V21.2764ZM23.2862 7.47852V6.47852C18.9277 6.47852 15.3284 9.74096 14.7269 13.9574L15.7169 14.0986L16.7069 14.2399C17.1722 10.978 19.954 8.47852 23.2862 8.47852V7.47852ZM15.7169 14.0986V15.0986H33.336V14.0986V13.0986H15.7169V14.0986ZM33.336 14.0986L34.326 13.9574C33.7245 9.74206 30.1264 6.47861 25.7677 6.47852L25.7677 7.47852L25.7676 8.47852C29.0995 8.47859 31.8807 10.9786 32.3461 14.2399L33.336 14.0986ZM25.7677 7.47852V6.47852H23.2862V7.47852V8.47852H25.7677V7.47852ZM57.6759 9.02344L56.6759 9.02352C56.6761 12.3742 59.401 15.0986 62.752 15.0986V14.0986V13.0986C60.5054 13.0986 58.676 11.2693 58.6759 9.02336L57.6759 9.02344ZM62.752 14.0986L62.7521 15.0986C66.1031 15.0984 68.827 12.3739 68.8272 9.02352L67.8272 9.02344L66.8272 9.02336C66.8271 11.2694 64.9984 13.0985 62.752 13.0986L62.752 14.0986ZM67.8272 9.02344H68.8272V8.36426H67.8272H66.8272V9.02344H67.8272ZM67.8272 8.36426V7.36426H57.6759V8.36426V9.36426H67.8272V8.36426ZM57.6759 8.36426H56.6759V9.02344H57.6759H58.6759V8.36426H57.6759ZM47.2901 14.0977V15.0977H52.0421V14.0977V13.0977H47.2901V14.0977ZM52.0421 14.0977H53.0421V5.12305H52.0421H51.0421V14.0977H52.0421ZM52.0421 5.12305V4.12305H47.2901V5.12305V6.12305H52.0421V5.12305ZM47.2901 5.12305H46.2901V14.0977H47.2901H48.2901V5.12305H47.2901ZM24.5675 1.97266L24.5673 0.972656C23.8948 0.972771 23.3184 1.23654 22.9197 1.68539C22.5376 2.11551 22.3663 2.6598 22.3612 3.17126C22.3561 3.68255 22.5164 4.22829 22.8853 4.665C23.2704 5.12081 23.8371 5.40109 24.508 5.41672L24.5313 4.41699L24.5546 3.41726C24.4878 3.41571 24.4546 3.40269 24.4425 3.39699C24.4303 3.39119 24.4217 3.38447 24.4131 3.3743C24.392 3.34931 24.3602 3.2863 24.3611 3.19112C24.3621 3.09611 24.3949 3.0362 24.4149 3.0137C24.423 3.00459 24.4316 2.99784 24.4454 2.99178C24.4592 2.98571 24.4958 2.97267 24.5676 2.97266L24.5675 1.97266ZM24.5313 4.41699V5.41699H24.6046V4.41699V3.41699H24.5313V4.41699ZM24.6046 4.41699L24.6281 5.41671C25.2991 5.4009 25.8657 5.12053 26.2507 4.66464C26.6196 4.22784 26.7797 3.68205 26.7745 3.1707C26.7692 2.65917 26.5978 2.1149 26.2154 1.6849C25.8165 1.23619 25.24 0.972656 24.5675 0.972656V1.97266V2.97266C24.6395 2.97266 24.6762 2.98571 24.6901 2.99182C24.704 2.99792 24.7127 3.00471 24.7208 3.01385C24.7408 3.03637 24.7736 3.09624 24.7746 3.19116C24.7756 3.28626 24.7438 3.34923 24.7227 3.37422C24.7141 3.38439 24.7055 3.39113 24.6932 3.39694C24.6811 3.40266 24.6479 3.41569 24.581 3.41727L24.6046 4.41699Z" fill="white" mask="url(#path-3-inside-1_1013_1551)"/>
</svg>
