<svg width="24" height="24" viewBox="0 0 24 24" fill="none" xmlns="http://www.w3.org/2000/svg">
<path d="M23 18C23 18.75 22.79 19.46 22.42 20.06C22.21 20.42 21.94 20.74 21.63 21C20.93 21.63 20.01 22 19 22C17.78 22 16.69 21.45 15.97 20.59C15.95 20.56 15.92 20.54 15.9 20.51C15.78 20.37 15.67 20.22 15.58 20.06C15.21 19.46 15 18.75 15 18C15 16.74 15.58 15.61 16.5 14.88C17.19 14.33 18.06 14 19 14C20 14 20.9 14.36 21.6 14.97C21.72 15.06 21.83 15.17 21.93 15.28C22.59 16 23 16.95 23 18Z" stroke="#292D32" stroke-width="1.5" stroke-miterlimit="10" stroke-linecap="round" stroke-linejoin="round"/>
<path d="M3.17001 7.44043L12 12.5504L20.77 7.4704" stroke="#292D32" stroke-width="1.5" stroke-linecap="round" stroke-linejoin="round"/>
<path d="M12 21.61V12.54" stroke="#292D32" stroke-width="1.5" stroke-linecap="round" stroke-linejoin="round"/>
<path d="M21.61 9.17V14.83C21.61 14.88 21.61 14.92 21.6 14.97C20.9 14.36 20 14 19 14C18.06 14 17.19 14.33 16.5 14.88C15.58 15.61 15 16.74 15 18C15 18.75 15.21 19.46 15.58 20.06C15.67 20.22 15.78 20.37 15.9 20.51L14.07 21.52C12.93 22.16 11.07 22.16 9.93001 21.52L4.59001 18.56C3.38001 17.89 2.39001 16.21 2.39001 14.83V9.17C2.39001 7.79 3.38001 6.11002 4.59001 5.44002L9.93001 2.48C11.07 1.84 12.93 1.84 14.07 2.48L19.41 5.44002C20.62 6.11002 21.61 7.79 21.61 9.17Z" stroke="#292D32" stroke-width="1.5" stroke-linecap="round" stroke-linejoin="round"/>
<mask id="path-5-inside-1_1119_549" fill="white">
<path d="M19 18.3506C19.0889 18.3506 19.1704 18.2765 19.1704 18.1802V15.9135C19.1704 15.8246 19.0963 15.7432 19 15.7432C18.9111 15.7432 18.8297 15.8172 18.8297 15.9135V18.1876C18.8371 18.2765 18.9111 18.3506 19 18.3506Z"/>
</mask>
<path d="M19 18.3506C19.0889 18.3506 19.1704 18.2765 19.1704 18.1802V15.9135C19.1704 15.8246 19.0963 15.7432 19 15.7432C18.9111 15.7432 18.8297 15.8172 18.8297 15.9135V18.1876C18.8371 18.2765 18.9111 18.3506 19 18.3506Z" fill="#292D32"/>
<path d="M18.8297 18.1876H17.3297V18.25L17.3348 18.3122L18.8297 18.1876ZM19 18.3506V19.8506C19.8748 19.8506 20.6704 19.1468 20.6704 18.1802H19.1704H17.6704C17.6704 17.4062 18.303 16.8506 19 16.8506V18.3506ZM19.1704 18.1802H20.6704V15.9135H19.1704H17.6704V18.1802H19.1704ZM19.1704 15.9135H20.6704C20.6704 15.0387 19.9666 14.2432 19 14.2432V15.7432V17.2432C18.226 17.2432 17.6704 16.6105 17.6704 15.9135H19.1704ZM19 15.7432V14.2432C18.1252 14.2432 17.3297 14.9469 17.3297 15.9135H18.8297H20.3297C20.3297 16.6876 19.697 17.2432 19 17.2432V15.7432ZM18.8297 15.9135H17.3297V18.1876H18.8297H20.3297V15.9135H18.8297ZM18.8297 18.1876L17.3348 18.3122C17.401 19.1066 18.0608 19.8506 19 19.8506V18.3506V16.8506C19.7614 16.8506 20.2731 17.4464 20.3245 18.063L18.8297 18.1876Z" fill="#292D32" mask="url(#path-5-inside-1_1119_549)"/>
<path d="M19.5635 16.2422C19.61 16.14 19.738 16.0948 19.8389 16.1406V16.1416L19.9717 16.208C20.6215 16.5644 21.04 17.2489 21.04 18C21.0399 19.1257 20.1257 20.04 19 20.04C17.8743 20.04 16.9601 19.1257 16.96 18C16.96 17.199 17.436 16.474 18.1533 16.1416L18.1553 16.1406L18.1953 16.1279C18.2775 16.1105 18.3605 16.1413 18.4082 16.207L18.4287 16.2422L18.4297 16.2432L18.4424 16.2842C18.4597 16.3662 18.4289 16.4494 18.3633 16.4971L18.3281 16.5176C17.7494 16.7852 17.373 17.364 17.373 18C17.3732 18.8964 18.0963 19.6258 18.9922 19.626C19.8885 19.626 20.619 18.8963 20.6191 18C20.6191 17.4037 20.2889 16.8514 19.7715 16.5703L19.665 16.5176C19.5628 16.4711 19.5176 16.3431 19.5635 16.2422Z" fill="#292D32" stroke="#292D32" stroke-width="0.08"/>
</svg>
